<svg xmlns="http://www.w3.org/2000/svg" xmlns:xlink="http://www.w3.org/1999/xlink" viewBox="0 0 93.742 31.806">
  <defs>
    <style>
      .cls-1, .cls-2 {
        fill: none;
      }

      .cls-1 {
        clip-rule: evenodd;
      }

      .cls-3 {
        clip-path: url(#clip-path);
      }

      .cls-4 {
        clip-path: url(#clip-path-2);
      }

      .cls-5 {
        clip-path: url(#clip-path-3);
      }

      .cls-6 {
        opacity: 0;
      }

      .cls-7 {
        fill: url(#linear-gradient);
      }

      .cls-8 {
        fill: url(#linear-gradient-2);
      }

      .cls-9 {
        clip-path: url(#clip-path-5);
      }

      .cls-10 {
        fill: url(#linear-gradient-3);
      }

      .cls-11 {
        fill: url(#linear-gradient-4);
      }

      .cls-12 {
        clip-path: url(#clip-path-7);
      }

      .cls-13 {
        fill: url(#linear-gradient-5);
      }

      .cls-14 {
        fill: url(#linear-gradient-6);
      }

      .cls-15 {
        clip-path: url(#clip-path-9);
      }

      .cls-16 {
        fill: url(#linear-gradient-7);
      }

      .cls-17 {
        fill: url(#linear-gradient-8);
      }

      .cls-18 {
        clip-path: url(#clip-path-11);
      }

      .cls-19 {
        fill: #fff;
      }

      .cls-20 {
        clip-path: url(#clip-path-13);
      }
    </style>
    <clipPath id="clip-path">
      <path id="Path_807" data-name="Path 807" class="cls-1" d="M4.02-95A4.021,4.021,0,0,0,0-90.98v23.765a4.02,4.02,0,0,0,4.02,4.02h85.7a4.021,4.021,0,0,0,4.02-4.02V-90.98A4.02,4.02,0,0,0,89.721-95Z" transform="translate(0 95)"/>
    </clipPath>
    <clipPath id="clip-path-2">
      <path id="Path_806" data-name="Path 806" class="cls-2" d="M-410-77.123h267.834V-278H-410Z" transform="translate(410 278)"/>
    </clipPath>
    <clipPath id="clip-path-3">
      <path id="Path_811" data-name="Path 811" class="cls-1" d="M21.811-56.242a.72.72,0,0,0-.435.761l0,12.838a.726.726,0,0,0,.422.758l7.123-7.184-7.112-7.172" transform="translate(-21.376 56.242)"/>
    </clipPath>
    <linearGradient id="linear-gradient" x1="0.076" y1="0.408" x2="0.076" y2="11.187" gradientUnits="objectBoundingBox">
      <stop offset="0"/>
      <stop offset="0" stop-color="#1e79af"/>
      <stop offset="0.1" stop-color="#2586b3"/>
      <stop offset="0.2" stop-color="#2c94b6"/>
      <stop offset="0.3" stop-color="#33a1ba"/>
      <stop offset="0.4" stop-color="#3aafbd"/>
      <stop offset="0.5" stop-color="#41bcc1"/>
      <stop offset="0.6" stop-color="#47c9c5"/>
      <stop offset="0.7" stop-color="#4ed7c8"/>
      <stop offset="0.8" stop-color="#55e4cc"/>
      <stop offset="0.9" stop-color="#5cf2cf"/>
      <stop offset="1" stop-color="#63ffd3"/>
      <stop offset="1"/>
    </linearGradient>
    <linearGradient id="linear-gradient-2" x1="0.117" y1="0.408" x2="0.117" y2="0.859" gradientUnits="objectBoundingBox">
      <stop offset="0" stop-color="#1e79af"/>
      <stop offset="0.1" stop-color="#2586b3"/>
      <stop offset="0.2" stop-color="#2c94b6"/>
      <stop offset="0.3" stop-color="#33a1ba"/>
      <stop offset="0.4" stop-color="#3aafbd"/>
      <stop offset="0.5" stop-color="#41bcc1"/>
      <stop offset="0.6" stop-color="#47c9c5"/>
      <stop offset="0.7" stop-color="#4ed7c8"/>
      <stop offset="0.8" stop-color="#55e4cc"/>
      <stop offset="0.9" stop-color="#5cf2cf"/>
      <stop offset="1" stop-color="#63ffd3"/>
    </linearGradient>
    <clipPath id="clip-path-5">
      <path id="Path_815" data-name="Path 815" class="cls-1" d="M22.643-27.635a.832.832,0,0,0,.669-.106L32-32.562l-2.238-2.257-7.123,7.184" transform="translate(-22.643 34.819)"/>
    </clipPath>
    <linearGradient id="linear-gradient-3" x1="0.081" y1="0.633" x2="0.081" y2="11.412" gradientUnits="objectBoundingBox">
      <stop offset="0"/>
      <stop offset="0" stop-color="#dc4057"/>
      <stop offset="0.1" stop-color="#d63f61"/>
      <stop offset="0.2" stop-color="#d03e6b"/>
      <stop offset="0.3" stop-color="#c93d75"/>
      <stop offset="0.4" stop-color="#c33c7f"/>
      <stop offset="0.5" stop-color="#bd3b89"/>
      <stop offset="0.6" stop-color="#b73a93"/>
      <stop offset="0.7" stop-color="#b1399d"/>
      <stop offset="0.8" stop-color="#aa38a7"/>
      <stop offset="0.9" stop-color="#a437b1"/>
      <stop offset="1" stop-color="#9e36bb"/>
      <stop offset="1"/>
    </linearGradient>
    <linearGradient id="linear-gradient-4" x1="0.165" y1="0.666" x2="0.086" y2="0.853" gradientUnits="objectBoundingBox">
      <stop offset="0" stop-color="#dc4057"/>
      <stop offset="0.1" stop-color="#d63f61"/>
      <stop offset="0.2" stop-color="#d03e6b"/>
      <stop offset="0.3" stop-color="#c93d75"/>
      <stop offset="0.4" stop-color="#c33c7f"/>
      <stop offset="0.5" stop-color="#bd3b89"/>
      <stop offset="0.6" stop-color="#b73a93"/>
      <stop offset="0.7" stop-color="#b1399d"/>
      <stop offset="0.8" stop-color="#aa38a7"/>
      <stop offset="0.9" stop-color="#a437b1"/>
      <stop offset="1" stop-color="#9e36bb"/>
    </linearGradient>
    <clipPath id="clip-path-7">
      <path id="Path_819" data-name="Path 819" class="cls-1" d="M46.159-37.029l2.964-1.643c.6-.334.6-.879,0-1.212l-2.975-1.65-2.228,2.247,2.239,2.258" transform="translate(-43.919 41.534)"/>
    </clipPath>
    <linearGradient id="linear-gradient-5" x1="0.157" y1="0.563" x2="0.157" y2="11.342" gradientUnits="objectBoundingBox">
      <stop offset="0"/>
      <stop offset="0" stop-color="#ff9676"/>
      <stop offset="0.1" stop-color="#ff9c76"/>
      <stop offset="0.2" stop-color="#ffa276"/>
      <stop offset="0.3" stop-color="#ffa775"/>
      <stop offset="0.4" stop-color="#ffad75"/>
      <stop offset="0.5" stop-color="#ffb375"/>
      <stop offset="0.6" stop-color="#ffb975"/>
      <stop offset="0.7" stop-color="#ffbf75"/>
      <stop offset="0.8" stop-color="#ffc474"/>
      <stop offset="0.9" stop-color="#ffca74"/>
      <stop offset="1" stop-color="#ffd074"/>
      <stop offset="1"/>
    </linearGradient>
    <linearGradient id="linear-gradient-6" x1="0.187" y1="0.563" x2="0.187" y2="0.701" gradientUnits="objectBoundingBox">
      <stop offset="0" stop-color="#ff9676"/>
      <stop offset="0.1" stop-color="#ff9c76"/>
      <stop offset="0.2" stop-color="#ffa276"/>
      <stop offset="0.3" stop-color="#ffa775"/>
      <stop offset="0.4" stop-color="#ffad75"/>
      <stop offset="0.5" stop-color="#ffb375"/>
      <stop offset="0.6" stop-color="#ffb975"/>
      <stop offset="0.7" stop-color="#ffbf75"/>
      <stop offset="0.8" stop-color="#ffc474"/>
      <stop offset="0.9" stop-color="#ffca74"/>
      <stop offset="1" stop-color="#ffd074"/>
    </linearGradient>
    <clipPath id="clip-path-9">
      <path id="Path_823" data-name="Path 823" class="cls-1" d="M32.017-51.373l-8.683-4.814a.844.844,0,0,0-.657-.11l7.112,7.171,2.228-2.247" transform="translate(-22.677 56.324)"/>
    </clipPath>
    <linearGradient id="linear-gradient-7" x1="0.081" y1="0.407" x2="0.081" y2="11.186" gradientUnits="objectBoundingBox">
      <stop offset="0"/>
      <stop offset="0" stop-color="#51c6ad"/>
      <stop offset="0.1" stop-color="#5eccac"/>
      <stop offset="0.2" stop-color="#6bd1ab"/>
      <stop offset="0.3" stop-color="#79d7a9"/>
      <stop offset="0.4" stop-color="#86dda8"/>
      <stop offset="0.5" stop-color="#93e3a7"/>
      <stop offset="0.6" stop-color="#a0e8a6"/>
      <stop offset="0.7" stop-color="#adeea5"/>
      <stop offset="0.8" stop-color="#bbf4a3"/>
      <stop offset="0.9" stop-color="#c8f9a2"/>
      <stop offset="1" stop-color="#d5ffa1"/>
      <stop offset="1"/>
    </linearGradient>
    <linearGradient id="linear-gradient-8" x1="0.098" y1="0.407" x2="0.181" y2="0.633" gradientUnits="objectBoundingBox">
      <stop offset="0" stop-color="#51c6ad"/>
      <stop offset="0.1" stop-color="#5eccac"/>
      <stop offset="0.2" stop-color="#6bd1ab"/>
      <stop offset="0.3" stop-color="#79d7a9"/>
      <stop offset="0.4" stop-color="#86dda8"/>
      <stop offset="0.5" stop-color="#93e3a7"/>
      <stop offset="0.6" stop-color="#a0e8a6"/>
      <stop offset="0.7" stop-color="#adeea5"/>
      <stop offset="0.8" stop-color="#bbf4a3"/>
      <stop offset="0.9" stop-color="#c8f9a2"/>
      <stop offset="1" stop-color="#d5ffa1"/>
    </linearGradient>
    <clipPath id="clip-path-11">
      <path id="Path_826" data-name="Path 826" class="cls-1" d="M79.421-44.262l-1.841.425a13.351,13.351,0,0,1-2.125.223,4.6,4.6,0,0,1-4.9-4.7,4.884,4.884,0,0,1,5.2-4.855,7.464,7.464,0,0,1,1.972.27,4.941,4.941,0,0,1,1.7.808l-1.069,1.024-.451.1.321-.517a3.66,3.66,0,0,0-2.755-1.22,3.571,3.571,0,0,0-3.563,3.83,4.571,4.571,0,0,0,4.555,4.738,3.806,3.806,0,0,0,1.634-.323v-2.093l-1.944.105L77.18-47h2.728l-.334.324a.3.3,0,0,0-.127.207c-.013.118-.026.494-.026.626Zm4.222.481a3.251,3.251,0,0,1-3.349-3.266,3.416,3.416,0,0,1,3.556-3.365,3.225,3.225,0,0,1,3.281,3.267A3.367,3.367,0,0,1,83.643-43.782Zm1.718-1.12a2.519,2.519,0,0,0,.412-1.536c0-1.22-.578-3.546-2.279-3.546a1.9,1.9,0,0,0-1.235.47,2.1,2.1,0,0,0-.632,1.691c0,1.368.673,3.625,2.335,3.625A1.752,1.752,0,0,0,85.361-44.9Zm5.59,1.12A3.252,3.252,0,0,1,87.6-47.048a3.416,3.416,0,0,1,3.557-3.365,3.226,3.226,0,0,1,3.283,3.267A3.368,3.368,0,0,1,90.951-43.782Zm1.717-1.12a2.5,2.5,0,0,0,.413-1.536c0-1.22-.576-3.546-2.279-3.546a1.906,1.906,0,0,0-1.238.47,2.1,2.1,0,0,0-.632,1.691c0,1.368.671,3.625,2.335,3.625A1.751,1.751,0,0,0,92.668-44.9Zm6.8-4.831a2.334,2.334,0,0,1,.973,1.868A2.342,2.342,0,0,1,99.287-45.9a.984.984,0,0,0-.385.678.763.763,0,0,0,.357.6l.5.386a2.418,2.418,0,0,1,1.153,1.94c0,1.3-1.25,2.616-3.612,2.616-1.99,0-2.952-.956-2.952-1.98A1.991,1.991,0,0,1,95.4-43.351a5.873,5.873,0,0,1,2.622-.636,1.466,1.466,0,0,1-.413-.943,1.26,1.26,0,0,1,.138-.54c-.15.014-.3.029-.439.029a2.181,2.181,0,0,1-2.28-2.175,2.5,2.5,0,0,1,.88-1.856,3.726,3.726,0,0,1,2.458-.762h2.83l-.88.5Zm-.973,6.148a2.105,2.105,0,0,0-.316-.015,5.406,5.406,0,0,0-1.441.222,1.553,1.553,0,0,0-1.183,1.427c0,.982.949,1.689,2.416,1.689,1.318,0,2.018-.637,2.018-1.5C99.987-42.464,99.534-42.837,98.492-43.586Zm.395-2.631a1.4,1.4,0,0,0,.345-1.012c0-1-.589-2.547-1.73-2.547a1.275,1.275,0,0,0-.961.459,1.6,1.6,0,0,0-.3,1.023c0,.927.536,2.465,1.716,2.465A1.4,1.4,0,0,0,98.887-46.217ZM103.218-45c0,.538.1.622.547.664.235.028.47.04.7.068l-.508.3h-2.42c.317-.415.372-.457.372-.733V-45l-.005-8.234h-1.069l1.029-.5h1.964a.956.956,0,0,0-.608.885Zm6.75.107-.657.625c-.152.084-.3.182-.453.251a3.157,3.157,0,0,1-1.332.261,2.921,2.921,0,0,1-1.828-.54,3.591,3.591,0,0,1-1.4-2.919,3.127,3.127,0,0,1,3.147-3.2,2.656,2.656,0,0,1,1.414.388,2.317,2.317,0,0,1,.962,1.371l-3.228,1.315-1.057.083a3.06,3.06,0,0,0,2.828,2.784,3.37,3.37,0,0,0,1.58-.436S110.031-44.955,109.968-44.891Zm-1.948-3.5c.262-.1.4-.179.4-.372a1.371,1.371,0,0,0-1.361-1.192,1.7,1.7,0,0,0-1.578,1.927c0,.233.028.482.042.731Zm5.906,3.561V-41.3h-.695V-50.28h.695v1.022a2.755,2.755,0,0,1,2.24-1.184c1.723,0,2.883,1.318,2.883,3.4s-1.16,3.417-2.883,3.417A2.748,2.748,0,0,1,113.926-44.832Zm4.376-2.207c0-1.572-.813-2.771-2.254-2.771a2.754,2.754,0,0,0-2.123,1.328v2.873a2.778,2.778,0,0,0,2.123,1.355C117.489-44.254,118.3-45.464,118.3-47.038ZM120-52.758h.694v8.975H120Zm6.46,8.956c-.046-.225-.081-.424-.107-.59a3.989,3.989,0,0,1-.033-.506,2.758,2.758,0,0,1-1.006.877,2.752,2.752,0,0,1-1.4.347,2.259,2.259,0,0,1-1.577-.508,1.779,1.779,0,0,1-.562-1.384,1.64,1.64,0,0,1,.815-1.417,3.726,3.726,0,0,1,2.113-.544h1.62v-.807a1.358,1.358,0,0,0-.471-1.1,2,2,0,0,0-1.33-.4,2.092,2.092,0,0,0-1.272.362,1.1,1.1,0,0,0-.482.91h-.711l-.015-.035a1.509,1.509,0,0,1,.67-1.293,2.9,2.9,0,0,1,1.848-.558,2.864,2.864,0,0,1,1.832.551,1.885,1.885,0,0,1,.693,1.574v3.2a5.128,5.128,0,0,0,.039.669,4.281,4.281,0,0,0,.138.643Zm-2.465-.51a2.6,2.6,0,0,0,1.447-.4,2,2,0,0,0,.877-1.015v-1.247h-1.628a2.653,2.653,0,0,0-1.541.419,1.215,1.215,0,0,0-.611,1.009,1.121,1.121,0,0,0,.389.891A1.564,1.564,0,0,0,123.992-44.312Zm4.494,2.428a1.623,1.623,0,0,0,.563.108c.425,0,.721-.175.986-.794l.507-1.158L127.8-50.28h.775l2.347,5.677,2.324-5.677h.786L130.7-42.354a1.708,1.708,0,0,1-1.64,1.209,2.726,2.726,0,0,1-.694-.094Z" transform="translate(-70.551 53.736)"/>
    </clipPath>
    <clipPath id="clip-path-13">
      <path id="Path_829" data-name="Path 829" class="cls-1" d="M70.4-77.467a2.226,2.226,0,0,1,2.323-2.29,2.072,2.072,0,0,1,1.779.916l-.631.365a1.428,1.428,0,0,0-1.148-.59,1.513,1.513,0,0,0-1.527,1.6,1.521,1.521,0,0,0,1.527,1.6,1.588,1.588,0,0,0,1.049-.4v-.684H72.442v-.684h2.1v1.653a2.391,2.391,0,0,1-1.819.81A2.235,2.235,0,0,1,70.4-77.467Zm5.1,2.21v-4.428h3.033V-79H76.276v1.141h2.211v.684H76.276v1.235h2.257v.684Zm5.182,0V-79H79.341v-.684H82.8V-79H81.458v3.743ZM85.5-79.684h.776v4.428H85.5Zm2.939,4.428V-79H87.1v-.684h3.458V-79H89.214v3.743Zm4.624-2.21a2.2,2.2,0,0,1,2.264-2.29,2.2,2.2,0,0,1,2.263,2.29,2.2,2.2,0,0,1-2.263,2.29A2.2,2.2,0,0,1,93.061-77.467Zm3.73,0a1.47,1.47,0,0,0-1.467-1.6,1.466,1.466,0,0,0-1.467,1.6,1.47,1.47,0,0,0,1.467,1.6A1.474,1.474,0,0,0,96.792-77.467Zm4.79,2.21-2.31-3.166v3.166H98.5v-4.428h.8l2.263,3.067v-3.067h.777v4.428Z" transform="translate(-70.397 79.757)"/>
    </clipPath>
  </defs>
  <g id="Adroid_Nav" transform="translate(0.001 0)">
    <g id="Group_763" data-name="Group 763" class="cls-3" transform="translate(0 0)">
      <g id="Group_762" data-name="Group 762" class="cls-4" transform="translate(-137.265 -61.267)">
        <path id="Path_805" data-name="Path 805" d="M-5-64.847H92.09V-100H-5Z" transform="translate(140.591 159.593)"/>
      </g>
    </g>
    <g id="Group_768" data-name="Group 768" class="cls-5" transform="translate(7.157 12.976)">
      <g id="Group_767" data-name="Group 767" class="cls-4" transform="translate(-144.421 -74.243)">
        <g id="Group_765" data-name="Group 765" class="cls-6" transform="translate(137.265 61.267)">
          <g id="Group_764" data-name="Group 764" transform="translate(0 0)">
            <path id="Path_808" data-name="Path 808" class="cls-7" d="M-21.376-38.758H72.366V-6.953H-21.376Z" transform="translate(21.376 38.758)"/>
          </g>
        </g>
        <g id="Group_766" data-name="Group 766" transform="translate(137.265 61.267)">
          <path id="Path_809" data-name="Path 809" class="cls-8" d="M-21.376-38.758H72.366V-6.953H-21.376Z" transform="translate(21.376 38.758)"/>
        </g>
      </g>
    </g>
    <g id="Group_773" data-name="Group 773" class="cls-9" transform="translate(7.581 20.148)">
      <g id="Group_772" data-name="Group 772" class="cls-4" transform="translate(-144.845 -81.416)">
        <g id="Group_770" data-name="Group 770" class="cls-6" transform="translate(137.265 61.267)">
          <g id="Group_769" data-name="Group 769" transform="translate(0 0)">
            <path id="Path_812" data-name="Path 812" class="cls-10" d="M-22.643-60.181H71.1v31.805H-22.643Z" transform="translate(22.643 60.181)"/>
          </g>
        </g>
        <g id="Group_771" data-name="Group 771" transform="translate(137.265 61.267)">
          <path id="Path_813" data-name="Path 813" class="cls-11" d="M-22.643-60.181H71.1v31.805H-22.643Z" transform="translate(22.643 60.181)"/>
        </g>
      </g>
    </g>
    <g id="Group_778" data-name="Group 778" class="cls-12" transform="translate(14.704 17.9)">
      <g id="Group_777" data-name="Group 777" class="cls-4" transform="translate(-151.969 -79.167)">
        <g id="Group_775" data-name="Group 775" class="cls-6" transform="translate(137.265 61.267)">
          <g id="Group_774" data-name="Group 774" transform="translate(0 0)">
            <path id="Path_816" data-name="Path 816" class="cls-13" d="M-43.919-53.466H49.822V-21.66H-43.919Z" transform="translate(43.919 53.466)"/>
          </g>
        </g>
        <g id="Group_776" data-name="Group 776" transform="translate(137.265 61.267)">
          <path id="Path_817" data-name="Path 817" class="cls-14" d="M-43.919-53.466H49.822V-21.66H-43.919Z" transform="translate(43.919 53.466)"/>
        </g>
      </g>
    </g>
    <g id="Group_783" data-name="Group 783" class="cls-15" transform="translate(7.592 12.948)">
      <g id="Group_782" data-name="Group 782" class="cls-4" transform="translate(-144.857 -74.216)">
        <g id="Group_780" data-name="Group 780" class="cls-6" transform="translate(137.265 61.267)">
          <g id="Group_779" data-name="Group 779" transform="translate(0 0)">
            <path id="Path_820" data-name="Path 820" class="cls-16" d="M-22.677-38.676H71.065V-6.87H-22.677Z" transform="translate(22.677 38.676)"/>
          </g>
        </g>
        <g id="Group_781" data-name="Group 781" transform="translate(137.265 61.267)">
          <path id="Path_821" data-name="Path 821" class="cls-17" d="M-22.677-38.676H71.065V-6.87H-22.677Z" transform="translate(22.677 38.676)"/>
        </g>
      </g>
    </g>
    <g id="Group_785" data-name="Group 785" class="cls-18" transform="translate(23.62 13.815)">
      <g id="Group_784" data-name="Group 784" class="cls-4" transform="translate(-160.885 -75.082)">
        <path id="Path_824" data-name="Path 824" class="cls-19" d="M65.551-41.334h66.834v-17.4H65.551Z" transform="translate(93.66 132.145)"/>
      </g>
    </g>
    <g id="Group_787" data-name="Group 787" class="cls-20" transform="translate(23.568 5.103)">
      <g id="Group_786" data-name="Group 786" class="cls-4" transform="translate(-160.833 -66.371)">
        <path id="Path_827" data-name="Path 827" class="cls-19" d="M65.4-76.823H100.68v-7.935H65.4Z" transform="translate(93.762 149.454)"/>
      </g>
    </g>
  </g>
</svg>
