<svg xmlns="http://www.w3.org/2000/svg" xmlns:xlink="http://www.w3.org/1999/xlink" viewBox="0 0 93.742 31.806">
  <defs>
    <style>
      .cls-1, .cls-2 {
        fill: none;
      }

      .cls-1 {
        clip-rule: evenodd;
      }

      .cls-3 {
        clip-path: url(#clip-path);
      }

      .cls-4 {
        clip-path: url(#clip-path-2);
      }

      .cls-5 {
        clip-path: url(#clip-path-3);
      }

      .cls-6 {
        fill: #fff;
      }

      .cls-7 {
        clip-path: url(#clip-path-5);
      }

      .cls-8 {
        clip-path: url(#clip-path-7);
      }
    </style>
    <clipPath id="clip-path">
      <path id="Path_795" data-name="Path 795" class="cls-1" d="M4.02-95A4.021,4.021,0,0,0,0-90.98v23.765a4.02,4.02,0,0,0,4.02,4.02h85.7a4.021,4.021,0,0,0,4.02-4.02V-90.98A4.02,4.02,0,0,0,89.721-95Z" transform="translate(0 95)"/>
    </clipPath>
    <clipPath id="clip-path-2">
      <path id="Path_794" data-name="Path 794" class="cls-2" d="M-110-76.123H157.834V-277H-110Z" transform="translate(110 277)"/>
    </clipPath>
    <clipPath id="clip-path-3">
      <path id="Path_798" data-name="Path 798" class="cls-1" d="M92.755-44.4h-1.6l-.874-2.748H87.247L86.414-44.4H84.86l3.01-9.356H89.73L92.755-44.4Zm-2.733-3.9H87.511l.776-2.443q.306-1.165.444-1.763h.028q.347,1.388.471,1.763Zm10.474.445a3.835,3.835,0,0,1-.93,2.72,2.717,2.717,0,0,1-2.067.889,2.067,2.067,0,0,1-1.915-.958h-.028v3.554h-1.5V-48.93q0-1.082-.056-2.221H95.32l.084,1.069h.028a2.5,2.5,0,0,1,2.275-1.208,2.5,2.5,0,0,1,1.991.944A3.718,3.718,0,0,1,100.5-47.861Zm-1.526.055a2.779,2.779,0,0,0-.444-1.624,1.533,1.533,0,0,0-1.3-.667,1.557,1.557,0,0,0-1.006.368,1.706,1.706,0,0,0-.59.965,1.964,1.964,0,0,0-.07.457v1.125a1.8,1.8,0,0,0,.451,1.243,1.5,1.5,0,0,0,1.172.507,1.533,1.533,0,0,0,1.317-.652A2.873,2.873,0,0,0,98.97-47.806Zm9.281-.055a3.832,3.832,0,0,1-.93,2.72,2.715,2.715,0,0,1-2.066.889,2.065,2.065,0,0,1-1.914-.958h-.028v3.554h-1.5V-48.93q0-1.082-.056-2.221h1.317l.084,1.069h.028a2.494,2.494,0,0,1,2.275-1.208,2.5,2.5,0,0,1,1.991.944A3.729,3.729,0,0,1,108.251-47.861Zm-1.526.055a2.779,2.779,0,0,0-.445-1.624,1.531,1.531,0,0,0-1.3-.667,1.559,1.559,0,0,0-1.006.368,1.7,1.7,0,0,0-.589.965,2,2,0,0,0-.07.457v1.125a1.809,1.809,0,0,0,.45,1.243,1.5,1.5,0,0,0,1.173.507,1.533,1.533,0,0,0,1.317-.652A2.873,2.873,0,0,0,106.725-47.806Zm10.2.778a2.494,2.494,0,0,1-.831,1.943,3.68,3.68,0,0,1-2.547.819,4.457,4.457,0,0,1-2.423-.583l.347-1.249a4.1,4.1,0,0,0,2.166.6,2.047,2.047,0,0,0,1.319-.382,1.249,1.249,0,0,0,.471-1.022,1.3,1.3,0,0,0-.389-.959,3.612,3.612,0,0,0-1.29-.723q-2.456-.916-2.455-2.683a2.375,2.375,0,0,1,.861-1.891,3.392,3.392,0,0,1,2.289-.737,4.536,4.536,0,0,1,2.122.444l-.375,1.222a3.68,3.68,0,0,0-1.79-.43,1.811,1.811,0,0,0-1.234.389,1.111,1.111,0,0,0-.375.847,1.144,1.144,0,0,0,.429.916,4.851,4.851,0,0,0,1.36.722,4.615,4.615,0,0,1,1.776,1.138A2.378,2.378,0,0,1,116.922-47.028Zm4.953-3h-1.651v3.276q0,1.25.874,1.249a2.663,2.663,0,0,0,.665-.07l.041,1.138a3.392,3.392,0,0,1-1.165.166,1.8,1.8,0,0,1-1.388-.541,2.661,2.661,0,0,1-.5-1.819v-3.4h-.984v-1.125h.984v-1.235l1.471-.444v1.68h1.651Zm7.45,2.193a3.7,3.7,0,0,1-.888,2.554,3.17,3.17,0,0,1-2.471,1.027,3.014,3.014,0,0,1-2.364-.985,3.589,3.589,0,0,1-.881-2.485,3.666,3.666,0,0,1,.909-2.568,3.143,3.143,0,0,1,2.448-1,3.078,3.078,0,0,1,2.386.986A3.548,3.548,0,0,1,129.325-47.833Zm-1.554.049a3.036,3.036,0,0,0-.4-1.6,1.48,1.48,0,0,0-1.345-.807,1.5,1.5,0,0,0-1.374.807,3.094,3.094,0,0,0-.4,1.629,3.032,3.032,0,0,0,.4,1.6,1.511,1.511,0,0,0,1.36.807,1.5,1.5,0,0,0,1.345-.821A3.047,3.047,0,0,0,127.771-47.785Zm6.424-2.048a2.6,2.6,0,0,0-.472-.041,1.415,1.415,0,0,0-1.221.6,2.247,2.247,0,0,0-.375,1.332v3.54h-1.5l.014-4.622q0-1.166-.056-2.124h1.3l.055,1.291h.041a2.307,2.307,0,0,1,.749-1.069,1.811,1.811,0,0,1,1.083-.361,2.4,2.4,0,0,1,.374.027Zm6.7,1.736a3.516,3.516,0,0,1-.055.68h-4.494A1.958,1.958,0,0,0,137-45.889a2.225,2.225,0,0,0,1.47.472,4.968,4.968,0,0,0,1.818-.319l.235,1.041a5.619,5.619,0,0,1-2.26.417A3.273,3.273,0,0,1,135.8-45.2a3.41,3.41,0,0,1-.894-2.478,3.867,3.867,0,0,1,.833-2.54,2.87,2.87,0,0,1,2.357-1.082A2.512,2.512,0,0,1,140.3-50.22,3.651,3.651,0,0,1,140.894-48.1Zm-1.428-.389a2.038,2.038,0,0,0-.291-1.152,1.308,1.308,0,0,0-1.194-.625,1.421,1.421,0,0,0-1.192.611,2.238,2.238,0,0,0-.443,1.166h3.12Z" transform="translate(-84.86 53.898)"/>
    </clipPath>
    <clipPath id="clip-path-5">
      <path id="Path_801" data-name="Path 801" class="cls-1" d="M91.294-75.5a2.309,2.309,0,0,1-.743,1.869,2.956,2.956,0,0,1-1.955.579,9.061,9.061,0,0,1-1.077-.055v-4.521a7.945,7.945,0,0,1,1.268-.1,2.733,2.733,0,0,1,1.82.525A2.123,2.123,0,0,1,91.294-75.5Zm-.776.02a1.681,1.681,0,0,0-.426-1.235,1.678,1.678,0,0,0-1.244-.43,3.115,3.115,0,0,0-.593.048v3.437a3.886,3.886,0,0,0,.5.02,1.741,1.741,0,0,0,1.3-.47A1.884,1.884,0,0,0,90.517-75.484Zm4.893.7a1.819,1.819,0,0,1-.436,1.255,1.557,1.557,0,0,1-1.213.5,1.48,1.48,0,0,1-1.162-.484,1.765,1.765,0,0,1-.432-1.221,1.8,1.8,0,0,1,.446-1.261,1.547,1.547,0,0,1,1.2-.491A1.514,1.514,0,0,1,94.988-76,1.751,1.751,0,0,1,95.41-74.782Zm-.764.024a1.5,1.5,0,0,0-.2-.787.727.727,0,0,0-.661-.4.739.739,0,0,0-.675.4,1.52,1.52,0,0,0-.2.8,1.5,1.5,0,0,0,.2.787.743.743,0,0,0,.668.4.735.735,0,0,0,.661-.4A1.49,1.49,0,0,0,94.647-74.758Zm6.284-1.654L99.894-73.1h-.675l-.429-1.439a10.778,10.778,0,0,1-.266-1.071H98.51a7.844,7.844,0,0,1-.266,1.071L97.788-73.1h-.682l-.975-3.314h.757l.374,1.576q.136.559.225,1.064H97.5q.082-.416.273-1.057l.47-1.582h.6l.45,1.548q.163.566.266,1.091h.02a10.433,10.433,0,0,1,.225-1.091l.4-1.548h.723Zm3.818,3.314h-.736V-75q0-.877-.668-.877a.664.664,0,0,0-.532.241.856.856,0,0,0-.2.568V-73.1h-.736v-2.367q0-.437-.027-.948h.647l.034.518h.02a1.064,1.064,0,0,1,.382-.4,1.244,1.244,0,0,1,.668-.186,1.057,1.057,0,0,1,.771.3,1.459,1.459,0,0,1,.382,1.1Zm1.295-4.835h.736V-73.1h-.736Zm5.071,3.15a1.819,1.819,0,0,1-.436,1.255,1.558,1.558,0,0,1-1.213.5,1.478,1.478,0,0,1-1.162-.484,1.765,1.765,0,0,1-.432-1.221,1.8,1.8,0,0,1,.446-1.261,1.547,1.547,0,0,1,1.2-.491,1.516,1.516,0,0,1,1.173.484A1.75,1.75,0,0,1,111.114-74.782Zm-.764.024a1.5,1.5,0,0,0-.2-.787.726.726,0,0,0-.66-.4.737.737,0,0,0-.675.4,1.52,1.52,0,0,0-.2.8,1.5,1.5,0,0,0,.2.787.743.743,0,0,0,.668.4.734.734,0,0,0,.66-.4A1.484,1.484,0,0,0,110.349-74.758Zm4.328,1.661h-.661l-.055-.382h-.02a1.134,1.134,0,0,1-.968.457,1,1,0,0,1-.756-.3.942.942,0,0,1-.259-.675,1.03,1.03,0,0,1,.508-.927,2.635,2.635,0,0,1,1.428-.314V-75.3q0-.655-.688-.655a1.54,1.54,0,0,0-.864.245l-.15-.484a2.123,2.123,0,0,1,1.136-.286q1.3,0,1.3,1.371v1.221A5.181,5.181,0,0,0,114.678-73.1Zm-.764-1.139v-.511q-1.218-.021-1.218.668a.5.5,0,0,0,.141.389.515.515,0,0,0,.36.129.743.743,0,0,0,.45-.153.628.628,0,0,0,.255-.392A.624.624,0,0,0,113.913-74.236Zm4.949,1.139h-.653l-.034-.532h-.02a1.1,1.1,0,0,1-1.064.607,1.246,1.246,0,0,1-.995-.47,1.833,1.833,0,0,1-.395-1.221,1.922,1.922,0,0,1,.429-1.3,1.32,1.32,0,0,1,1.022-.464.992.992,0,0,1,.933.45h.014v-1.9h.737v3.942Q118.836-73.506,118.862-73.1Zm-.763-1.4v-.553a1.084,1.084,0,0,0-.02-.232.839.839,0,0,0-.266-.446.724.724,0,0,0-.493-.181.756.756,0,0,0-.648.328,1.4,1.4,0,0,0-.236.839,1.309,1.309,0,0,0,.226.8.758.758,0,0,0,.644.327.709.709,0,0,0,.582-.273A.909.909,0,0,0,118.1-74.5Zm7.061-.287a1.819,1.819,0,0,1-.436,1.255,1.556,1.556,0,0,1-1.213.5,1.482,1.482,0,0,1-1.162-.484,1.765,1.765,0,0,1-.432-1.221,1.8,1.8,0,0,1,.446-1.261,1.548,1.548,0,0,1,1.2-.491,1.513,1.513,0,0,1,1.172.484A1.75,1.75,0,0,1,125.16-74.782Zm-.763.024a1.5,1.5,0,0,0-.2-.787.728.728,0,0,0-.661-.4.74.74,0,0,0-.675.4,1.52,1.52,0,0,0-.2.8,1.5,1.5,0,0,0,.2.787.743.743,0,0,0,.668.4.736.736,0,0,0,.661-.4A1.5,1.5,0,0,0,124.4-74.758Zm4.723,1.661h-.736V-75q0-.877-.668-.877a.662.662,0,0,0-.531.241.852.852,0,0,0-.2.568V-73.1h-.737v-2.367q0-.437-.026-.948h.646l.034.518h.02a1.076,1.076,0,0,1,.382-.4,1.246,1.246,0,0,1,.668-.186,1.056,1.056,0,0,1,.77.3,1.456,1.456,0,0,1,.382,1.1Zm4.956-2.762h-.811v1.61c0,.409.144.614.429.614a1.3,1.3,0,0,0,.328-.034l.019.559a1.654,1.654,0,0,1-.572.082.88.88,0,0,1-.681-.266,1.3,1.3,0,0,1-.246-.894V-75.86h-.484v-.552h.484v-.607l.722-.218v.825h.811v.553Zm3.9,2.762h-.737v-1.884q0-.891-.667-.891a.7.7,0,0,0-.7.517.927.927,0,0,0-.034.265V-73.1H135.1v-4.834h.736v2h.014a1.113,1.113,0,0,1,.995-.545,1.026,1.026,0,0,1,.757.3,1.51,1.51,0,0,1,.375,1.112Zm4.021-1.814a1.782,1.782,0,0,1-.027.334h-2.208a.967.967,0,0,0,.32.75,1.1,1.1,0,0,0,.723.232,2.438,2.438,0,0,0,.893-.157l.115.512a2.772,2.772,0,0,1-1.112.2,1.6,1.6,0,0,1-1.209-.453,1.671,1.671,0,0,1-.439-1.217,1.9,1.9,0,0,1,.409-1.248,1.408,1.408,0,0,1,1.158-.532,1.232,1.232,0,0,1,1.083.532A1.77,1.77,0,0,1,141.995-74.911Zm-.7-.191a.992.992,0,0,0-.143-.566.643.643,0,0,0-.586-.307.7.7,0,0,0-.586.3,1.116,1.116,0,0,0-.219.573Z" transform="translate(-87.518 77.932)"/>
    </clipPath>
    <clipPath id="clip-path-7">
      <path id="Path_804" data-name="Path 804" class="cls-1" d="M34.077-68.386A3.971,3.971,0,0,0,36.5-64.733a9.093,9.093,0,0,1-1.261,2.567c-.743,1.11-1.521,2.2-2.757,2.216-1.2.028-1.6-.707-2.981-.707s-1.82.687-2.971.734c-1.177.043-2.076-1.186-2.846-2.286-1.538-2.247-2.736-6.333-1.13-9.113a4.412,4.412,0,0,1,3.713-2.265c1.178-.024,2.272.8,3,.8s2.062-.981,3.456-.834a4.208,4.208,0,0,1,3.314,1.791A4.108,4.108,0,0,0,34.077-68.386ZM31.809-75.1a3.4,3.4,0,0,1-2.687,1.271,3.848,3.848,0,0,1,.95-2.791A4.119,4.119,0,0,1,32.735-78,4.043,4.043,0,0,1,31.809-75.1Z" transform="translate(-21.792 78)"/>
    </clipPath>
  </defs>
  <g id="Apple_Nav" transform="translate(0 0)">
    <g id="Group_754" data-name="Group 754" class="cls-3" transform="translate(0 0)">
      <g id="Group_753" data-name="Group 753" class="cls-4" transform="translate(-36.827 -60.933)">
        <path id="Path_793" data-name="Path 793" d="M-5-64.847H92.09V-100H-5Z" transform="translate(40.153 159.259)"/>
      </g>
    </g>
    <g id="Group_756" data-name="Group 756" class="cls-5" transform="translate(28.411 13.761)">
      <g id="Group_755" data-name="Group 755" class="cls-4" transform="translate(-65.238 -74.693)">
        <path id="Path_796" data-name="Path 796" class="cls-6" d="M79.86-43.307h59.381V-58.9H79.86Z" transform="translate(-16.297 131.917)"/>
      </g>
    </g>
    <g id="Group_758" data-name="Group 758" class="cls-7" transform="translate(29.3 5.714)">
      <g id="Group_757" data-name="Group 757" class="cls-4" transform="translate(-66.127 -66.647)">
        <path id="Path_799" data-name="Path 799" class="cls-6" d="M82.518-74.674h57.825v-8.258H82.518Z" transform="translate(-18.064 147.905)"/>
      </g>
    </g>
    <g id="Group_760" data-name="Group 760" class="cls-8" transform="translate(7.296 5.692)">
      <g id="Group_759" data-name="Group 759" class="cls-4" transform="translate(-44.123 -66.624)">
        <path id="Path_802" data-name="Path 802" class="cls-6" d="M16.792-61.573H34.849V-83H16.792Z" transform="translate(25.657 147.95)"/>
      </g>
    </g>
  </g>
</svg>
