<svg xmlns="http://www.w3.org/2000/svg" viewBox="0 0 34.898 34.9">
  <defs>
    <style>
      .cls-1 {
        fill: none;
        stroke: #f14339;
        stroke-linecap: round;
        stroke-linejoin: round;
        stroke-miterlimit: 10;
        stroke-width: 2px;
      }
    </style>
  </defs>
  <g id="Group_6001" data-name="Group 6001" transform="translate(0.199 0.301)">
    <path id="Path_7950" data-name="Path 7950" class="cls-1" d="M25.9,25l-8.7-7.8V7.1"/>
    <path id="Path_7951" data-name="Path 7951" class="cls-1" d="M5.6,5.6A15.857,15.857,0,0,0,.8,17.2,15.857,15.857,0,0,0,5.6,28.8a15.857,15.857,0,0,0,11.6,4.8,16.082,16.082,0,0,0,11.7-4.8,15.857,15.857,0,0,0,4.8-11.6,21.862,21.862,0,0,0-.3-3.6,12.09,12.09,0,0,0-.5-1.8,15.733,15.733,0,0,0-4-6.3A15.921,15.921,0,0,0,17.2.7,15.571,15.571,0,0,0,5.6,5.6Z"/>
  </g>
</svg>
