<svg xmlns="http://www.w3.org/2000/svg" xmlns:xlink="http://www.w3.org/1999/xlink" viewBox="0 0 4.5 969.02">
  <defs>
    <style>
      .cls-1 {
        fill: none;
      }

      .cls-2 {
        opacity: 0.182;
        clip-path: url(#clip-path);
      }

      .cls-3 {
        fill: #801336;
      }
    </style>
    <clipPath id="clip-path">
      <rect class="cls-1" width="4.5" height="969.019"/>
    </clipPath>
  </defs>
  <g id="line" class="cls-2">
    <g transform="translate(-128 -133)">
      <rect id="round" class="cls-3" width="3" height="3" rx="1.5" transform="translate(128 133)"/>
    </g>
    <g transform="translate(-128 -124)">
      <rect id="round-2" data-name="round" class="cls-3" width="3" height="3" rx="1.5" transform="translate(128 133)"/>
    </g>
    <g transform="translate(-128 -115)">
      <rect id="round-3" data-name="round" class="cls-3" width="3" height="3" rx="1.5" transform="translate(128 133)"/>
    </g>
    <g transform="translate(-128 -106)">
      <rect id="round-4" data-name="round" class="cls-3" width="3" height="3" rx="1.5" transform="translate(128 133)"/>
    </g>
    <g transform="translate(-128 -97)">
      <rect id="round-5" data-name="round" class="cls-3" width="3" height="3" rx="1.5" transform="translate(128 133)"/>
    </g>
    <g transform="translate(-128 -88)">
      <rect id="round-6" data-name="round" class="cls-3" width="3" height="3" rx="1.5" transform="translate(128 133)"/>
    </g>
    <g transform="translate(-128 -79)">
      <rect id="round-7" data-name="round" class="cls-3" width="3" height="3" rx="1.5" transform="translate(128 133)"/>
    </g>
    <g transform="translate(-128 -70)">
      <rect id="round-8" data-name="round" class="cls-3" width="3" height="3" rx="1.5" transform="translate(128 133)"/>
    </g>
    <g transform="translate(-128 -61)">
      <rect id="round-9" data-name="round" class="cls-3" width="3" height="3" rx="1.5" transform="translate(128 133)"/>
    </g>
    <g transform="translate(-128 -52)">
      <rect id="round-10" data-name="round" class="cls-3" width="3" height="3" rx="1.5" transform="translate(128 133)"/>
    </g>
    <g transform="translate(-128 -43)">
      <rect id="round-11" data-name="round" class="cls-3" width="3" height="3" rx="1.5" transform="translate(128 133)"/>
    </g>
    <g transform="translate(-128 -34)">
      <rect id="round-12" data-name="round" class="cls-3" width="3" height="3" rx="1.5" transform="translate(128 133)"/>
    </g>
    <g transform="translate(-128 -25)">
      <rect id="round-13" data-name="round" class="cls-3" width="3" height="3" rx="1.5" transform="translate(128 133)"/>
    </g>
    <g transform="translate(-128 -16)">
      <rect id="round-14" data-name="round" class="cls-3" width="3" height="3" rx="1.5" transform="translate(128 133)"/>
    </g>
    <g transform="translate(-128 -7)">
      <rect id="round-15" data-name="round" class="cls-3" width="3" height="3" rx="1.5" transform="translate(128 133)"/>
    </g>
    <g transform="translate(-128 2)">
      <rect id="round-16" data-name="round" class="cls-3" width="3" height="3" rx="1.5" transform="translate(128 133)"/>
    </g>
    <g transform="translate(-128 11)">
      <rect id="round-17" data-name="round" class="cls-3" width="3" height="3" rx="1.5" transform="translate(128 133)"/>
    </g>
    <g transform="translate(-128 20)">
      <rect id="round-18" data-name="round" class="cls-3" width="3" height="3" rx="1.5" transform="translate(128 133)"/>
    </g>
    <g transform="translate(-128 29)">
      <rect id="round-19" data-name="round" class="cls-3" width="3" height="3" rx="1.5" transform="translate(128 133)"/>
    </g>
    <g transform="translate(-128 38)">
      <rect id="round-20" data-name="round" class="cls-3" width="3" height="3" rx="1.5" transform="translate(128 133)"/>
    </g>
    <g transform="translate(-128 47)">
      <rect id="round-21" data-name="round" class="cls-3" width="3" height="3" rx="1.5" transform="translate(128 133)"/>
    </g>
    <g transform="translate(-128 56)">
      <rect id="round-22" data-name="round" class="cls-3" width="3" height="3" rx="1.5" transform="translate(128 133)"/>
    </g>
    <g transform="translate(-128 65)">
      <rect id="round-23" data-name="round" class="cls-3" width="3" height="3" rx="1.5" transform="translate(128 133)"/>
    </g>
    <g transform="translate(-128 74)">
      <rect id="round-24" data-name="round" class="cls-3" width="3" height="3" rx="1.5" transform="translate(128 133)"/>
    </g>
    <g transform="translate(-128 83)">
      <rect id="round-25" data-name="round" class="cls-3" width="3" height="3" rx="1.5" transform="translate(128 133)"/>
    </g>
    <g transform="translate(-128 92)">
      <rect id="round-26" data-name="round" class="cls-3" width="3" height="3" rx="1.5" transform="translate(128 133)"/>
    </g>
    <g transform="translate(-128 101)">
      <rect id="round-27" data-name="round" class="cls-3" width="3" height="3" rx="1.5" transform="translate(128 133)"/>
    </g>
    <g transform="translate(-128 110)">
      <rect id="round-28" data-name="round" class="cls-3" width="3" height="3" rx="1.5" transform="translate(128 133)"/>
    </g>
    <g transform="translate(-128 119)">
      <rect id="round-29" data-name="round" class="cls-3" width="3" height="3" rx="1.5" transform="translate(128 133)"/>
    </g>
    <g transform="translate(-128 128)">
      <rect id="round-30" data-name="round" class="cls-3" width="3" height="3" rx="1.5" transform="translate(128 133)"/>
    </g>
    <g transform="translate(-128 137)">
      <rect id="round-31" data-name="round" class="cls-3" width="3" height="3" rx="1.5" transform="translate(128 133)"/>
    </g>
    <g transform="translate(-128 146)">
      <rect id="round-32" data-name="round" class="cls-3" width="3" height="3" rx="1.5" transform="translate(128 133)"/>
    </g>
    <g transform="translate(-128 155)">
      <rect id="round-33" data-name="round" class="cls-3" width="3" height="3" rx="1.5" transform="translate(128 133)"/>
    </g>
    <g transform="translate(-128 164)">
      <rect id="round-34" data-name="round" class="cls-3" width="3" height="3" rx="1.5" transform="translate(128 133)"/>
    </g>
    <g transform="translate(-128 173)">
      <rect id="round-35" data-name="round" class="cls-3" width="3" height="3" rx="1.5" transform="translate(128 133)"/>
    </g>
    <g transform="translate(-128 182)">
      <rect id="round-36" data-name="round" class="cls-3" width="3" height="3" rx="1.5" transform="translate(128 133)"/>
    </g>
    <g transform="translate(-128 191)">
      <rect id="round-37" data-name="round" class="cls-3" width="3" height="3" rx="1.5" transform="translate(128 133)"/>
    </g>
    <g transform="translate(-128 200)">
      <rect id="round-38" data-name="round" class="cls-3" width="3" height="3" rx="1.5" transform="translate(128 133)"/>
    </g>
    <g transform="translate(-128 209)">
      <rect id="round-39" data-name="round" class="cls-3" width="3" height="3" rx="1.5" transform="translate(128 133)"/>
    </g>
    <g transform="translate(-128 218)">
      <rect id="round-40" data-name="round" class="cls-3" width="3" height="3" rx="1.5" transform="translate(128 133)"/>
    </g>
    <g transform="translate(-128 227)">
      <rect id="round-41" data-name="round" class="cls-3" width="3" height="3" rx="1.5" transform="translate(128 133)"/>
    </g>
    <g transform="translate(-128 236)">
      <rect id="round-42" data-name="round" class="cls-3" width="3" height="3" rx="1.5" transform="translate(128 133)"/>
    </g>
    <g transform="translate(-128 245)">
      <rect id="round-43" data-name="round" class="cls-3" width="3" height="3" rx="1.5" transform="translate(128 133)"/>
    </g>
    <g transform="translate(-128 254)">
      <rect id="round-44" data-name="round" class="cls-3" width="3" height="3" rx="1.5" transform="translate(128 133)"/>
    </g>
    <g transform="translate(-128 263)">
      <rect id="round-45" data-name="round" class="cls-3" width="3" height="3" rx="1.5" transform="translate(128 133)"/>
    </g>
    <g transform="translate(-128 272)">
      <rect id="round-46" data-name="round" class="cls-3" width="3" height="3" rx="1.5" transform="translate(128 133)"/>
    </g>
    <g transform="translate(-128 281)">
      <rect id="round-47" data-name="round" class="cls-3" width="3" height="3" rx="1.5" transform="translate(128 133)"/>
    </g>
    <g transform="translate(-128 290)">
      <rect id="round-48" data-name="round" class="cls-3" width="3" height="3" rx="1.5" transform="translate(128 133)"/>
    </g>
    <g transform="translate(-128 299)">
      <rect id="round-49" data-name="round" class="cls-3" width="3" height="3" rx="1.5" transform="translate(128 133)"/>
    </g>
    <g transform="translate(-128 308)">
      <rect id="round-50" data-name="round" class="cls-3" width="3" height="3" rx="1.5" transform="translate(128 133)"/>
    </g>
    <g transform="translate(-128 317)">
      <rect id="round-51" data-name="round" class="cls-3" width="3" height="3" rx="1.5" transform="translate(128 133)"/>
    </g>
    <g transform="translate(-128 326)">
      <rect id="round-52" data-name="round" class="cls-3" width="3" height="3" rx="1.5" transform="translate(128 133)"/>
    </g>
    <g transform="translate(-128 335)">
      <rect id="round-53" data-name="round" class="cls-3" width="3" height="3" rx="1.5" transform="translate(128 133)"/>
    </g>
    <g transform="translate(-128 344)">
      <rect id="round-54" data-name="round" class="cls-3" width="3" height="3" rx="1.5" transform="translate(128 133)"/>
    </g>
    <g transform="translate(-128 353)">
      <rect id="round-55" data-name="round" class="cls-3" width="3" height="3" rx="1.5" transform="translate(128 133)"/>
    </g>
    <g transform="translate(-128 362)">
      <rect id="round-56" data-name="round" class="cls-3" width="3" height="3" rx="1.5" transform="translate(128 133)"/>
    </g>
    <g transform="translate(-128 371)">
      <rect id="round-57" data-name="round" class="cls-3" width="3" height="3" rx="1.5" transform="translate(128 133)"/>
    </g>
    <g transform="translate(-128 380)">
      <rect id="round-58" data-name="round" class="cls-3" width="3" height="3" rx="1.5" transform="translate(128 133)"/>
    </g>
    <g transform="translate(-128 389)">
      <rect id="round-59" data-name="round" class="cls-3" width="3" height="3" rx="1.5" transform="translate(128 133)"/>
    </g>
    <g transform="translate(-128 398)">
      <rect id="round-60" data-name="round" class="cls-3" width="3" height="3" rx="1.5" transform="translate(128 133)"/>
    </g>
    <g transform="translate(-128 407)">
      <rect id="round-61" data-name="round" class="cls-3" width="3" height="3" rx="1.5" transform="translate(128 133)"/>
    </g>
    <g transform="translate(-128 416)">
      <rect id="round-62" data-name="round" class="cls-3" width="3" height="3" rx="1.5" transform="translate(128 133)"/>
    </g>
    <g transform="translate(-128 425)">
      <rect id="round-63" data-name="round" class="cls-3" width="3" height="3" rx="1.5" transform="translate(128 133)"/>
    </g>
    <g transform="translate(-128 434)">
      <rect id="round-64" data-name="round" class="cls-3" width="3" height="3" rx="1.5" transform="translate(128 133)"/>
    </g>
    <g transform="translate(-128 443)">
      <rect id="round-65" data-name="round" class="cls-3" width="3" height="3" rx="1.5" transform="translate(128 133)"/>
    </g>
    <g transform="translate(-128 452)">
      <rect id="round-66" data-name="round" class="cls-3" width="3" height="3" rx="1.5" transform="translate(128 133)"/>
    </g>
    <g transform="translate(-128 461)">
      <rect id="round-67" data-name="round" class="cls-3" width="3" height="3" rx="1.5" transform="translate(128 133)"/>
    </g>
    <g transform="translate(-128 470)">
      <rect id="round-68" data-name="round" class="cls-3" width="3" height="3" rx="1.5" transform="translate(128 133)"/>
    </g>
    <g transform="translate(-128 479)">
      <rect id="round-69" data-name="round" class="cls-3" width="3" height="3" rx="1.5" transform="translate(128 133)"/>
    </g>
    <g transform="translate(-128 488)">
      <rect id="round-70" data-name="round" class="cls-3" width="3" height="3" rx="1.5" transform="translate(128 133)"/>
    </g>
    <g transform="translate(-128 497)">
      <rect id="round-71" data-name="round" class="cls-3" width="3" height="3" rx="1.5" transform="translate(128 133)"/>
    </g>
    <g transform="translate(-128 506)">
      <rect id="round-72" data-name="round" class="cls-3" width="3" height="3" rx="1.5" transform="translate(128 133)"/>
    </g>
    <g transform="translate(-128 515)">
      <rect id="round-73" data-name="round" class="cls-3" width="3" height="3" rx="1.5" transform="translate(128 133)"/>
    </g>
    <g transform="translate(-128 524)">
      <rect id="round-74" data-name="round" class="cls-3" width="3" height="3" rx="1.5" transform="translate(128 133)"/>
    </g>
    <g transform="translate(-128 533)">
      <rect id="round-75" data-name="round" class="cls-3" width="3" height="3" rx="1.5" transform="translate(128 133)"/>
    </g>
    <g transform="translate(-128 542)">
      <rect id="round-76" data-name="round" class="cls-3" width="3" height="3" rx="1.5" transform="translate(128 133)"/>
    </g>
    <g transform="translate(-128 551)">
      <rect id="round-77" data-name="round" class="cls-3" width="3" height="3" rx="1.5" transform="translate(128 133)"/>
    </g>
    <g transform="translate(-128 560)">
      <rect id="round-78" data-name="round" class="cls-3" width="3" height="3" rx="1.5" transform="translate(128 133)"/>
    </g>
    <g transform="translate(-128 569)">
      <rect id="round-79" data-name="round" class="cls-3" width="3" height="3" rx="1.5" transform="translate(128 133)"/>
    </g>
    <g transform="translate(-128 578)">
      <rect id="round-80" data-name="round" class="cls-3" width="3" height="3" rx="1.5" transform="translate(128 133)"/>
    </g>
    <g transform="translate(-128 587)">
      <rect id="round-81" data-name="round" class="cls-3" width="3" height="3" rx="1.5" transform="translate(128 133)"/>
    </g>
    <g transform="translate(-128 596)">
      <rect id="round-82" data-name="round" class="cls-3" width="3" height="3" rx="1.5" transform="translate(128 133)"/>
    </g>
    <g transform="translate(-128 605)">
      <rect id="round-83" data-name="round" class="cls-3" width="3" height="3" rx="1.5" transform="translate(128 133)"/>
    </g>
    <g transform="translate(-128 614)">
      <rect id="round-84" data-name="round" class="cls-3" width="3" height="3" rx="1.5" transform="translate(128 133)"/>
    </g>
    <g transform="translate(-128 623)">
      <rect id="round-85" data-name="round" class="cls-3" width="3" height="3" rx="1.5" transform="translate(128 133)"/>
    </g>
    <g transform="translate(-128 632)">
      <rect id="round-86" data-name="round" class="cls-3" width="3" height="3" rx="1.5" transform="translate(128 133)"/>
    </g>
    <g transform="translate(-128 641)">
      <rect id="round-87" data-name="round" class="cls-3" width="3" height="3" rx="1.5" transform="translate(128 133)"/>
    </g>
    <g transform="translate(-128 650)">
      <rect id="round-88" data-name="round" class="cls-3" width="3" height="3" rx="1.5" transform="translate(128 133)"/>
    </g>
    <g transform="translate(-128 659)">
      <rect id="round-89" data-name="round" class="cls-3" width="3" height="3" rx="1.5" transform="translate(128 133)"/>
    </g>
    <g transform="translate(-128 668)">
      <rect id="round-90" data-name="round" class="cls-3" width="3" height="3" rx="1.5" transform="translate(128 133)"/>
    </g>
    <g transform="translate(-128 677)">
      <rect id="round-91" data-name="round" class="cls-3" width="3" height="3" rx="1.5" transform="translate(128 133)"/>
    </g>
    <g transform="translate(-128 686)">
      <rect id="round-92" data-name="round" class="cls-3" width="3" height="3" rx="1.5" transform="translate(128 133)"/>
    </g>
    <g transform="translate(-128 695)">
      <rect id="round-93" data-name="round" class="cls-3" width="3" height="3" rx="1.5" transform="translate(128 133)"/>
    </g>
    <g transform="translate(-128 704)">
      <rect id="round-94" data-name="round" class="cls-3" width="3" height="3" rx="1.5" transform="translate(128 133)"/>
    </g>
    <g transform="translate(-128 713)">
      <rect id="round-95" data-name="round" class="cls-3" width="3" height="3" rx="1.5" transform="translate(128 133)"/>
    </g>
    <g transform="translate(-128 722)">
      <rect id="round-96" data-name="round" class="cls-3" width="3" height="3" rx="1.5" transform="translate(128 133)"/>
    </g>
    <g transform="translate(-128 731)">
      <rect id="round-97" data-name="round" class="cls-3" width="3" height="3" rx="1.5" transform="translate(128 133)"/>
    </g>
    <g transform="translate(-128 740)">
      <rect id="round-98" data-name="round" class="cls-3" width="3" height="3" rx="1.5" transform="translate(128 133)"/>
    </g>
    <g transform="translate(-128 749)">
      <rect id="round-99" data-name="round" class="cls-3" width="3" height="3" rx="1.5" transform="translate(128 133)"/>
    </g>
    <g transform="translate(-128 758)">
      <rect id="round-100" data-name="round" class="cls-3" width="3" height="3" rx="1.5" transform="translate(128 133)"/>
    </g>
    <g transform="translate(-128 767)">
      <rect id="round-101" data-name="round" class="cls-3" width="3" height="3" rx="1.5" transform="translate(128 133)"/>
    </g>
    <g transform="translate(-128 776)">
      <rect id="round-102" data-name="round" class="cls-3" width="3" height="3" rx="1.5" transform="translate(128 133)"/>
    </g>
    <g transform="translate(-128 785)">
      <rect id="round-103" data-name="round" class="cls-3" width="3" height="3" rx="1.5" transform="translate(128 133)"/>
    </g>
    <g transform="translate(-128 794)">
      <rect id="round-104" data-name="round" class="cls-3" width="3" height="3" rx="1.5" transform="translate(128 133)"/>
    </g>
    <g transform="translate(-128 803)">
      <rect id="round-105" data-name="round" class="cls-3" width="3" height="3" rx="1.5" transform="translate(128 133)"/>
    </g>
    <g transform="translate(-128 812)">
      <rect id="round-106" data-name="round" class="cls-3" width="3" height="3" rx="1.5" transform="translate(128 133)"/>
    </g>
    <g transform="translate(-128 821)">
      <rect id="round-107" data-name="round" class="cls-3" width="3" height="3" rx="1.5" transform="translate(128 133)"/>
    </g>
    <g transform="translate(-128 830)">
      <rect id="round-108" data-name="round" class="cls-3" width="3" height="3" rx="1.5" transform="translate(128 133)"/>
    </g>
  </g>
</svg>
