<svg xmlns="http://www.w3.org/2000/svg" viewBox="0 0 13.135 13.136">
  <defs>
    <style>
      .cls-1 {
        fill: #fff;
        opacity: 0.6;
      }
    </style>
  </defs>
  <path id="Facebook_1_" class="cls-1" d="M13.135,12.42a.718.718,0,0,1-.716.716H9.055V8.053h1.718l.251-1.969H9.055V4.832c0-.573.143-.966.966-.966h1.038V2.076A11.723,11.723,0,0,0,9.52,2,2.388,2.388,0,0,0,6.979,4.617V6.085H5.261V8.053H6.979v5.082H.716A.718.718,0,0,1,0,12.42V.716A.718.718,0,0,1,.716,0h11.7a.718.718,0,0,1,.716.716Z"/>
</svg>
