<svg xmlns="http://www.w3.org/2000/svg" xmlns:xlink="http://www.w3.org/1999/xlink" viewBox="0 0 122.246 41.477">
  <defs>
    <style>
      .cls-1, .cls-2, .cls-3, .cls-4 {
        fill: none;
      }

      .cls-1, .cls-7 {
        stroke: #fff;
      }

      .cls-1, .cls-3 {
        clip-rule: evenodd;
      }

      .cls-2 {
        stroke: #707070;
      }

      .cls-5 {
        clip-path: url(#clip-path);
      }

      .cls-6 {
        clip-path: url(#clip-path-2);
      }

      .cls-7 {
        fill: #2d132c;
      }

      .cls-8 {
        clip-path: url(#clip-path-3);
      }

      .cls-9 {
        clip-path: url(#clip-path-4);
      }

      .cls-10 {
        fill: #fff;
      }

      .cls-11 {
        clip-path: url(#clip-path-5);
      }

      .cls-12 {
        clip-path: url(#clip-path-7);
      }
    </style>
    <clipPath id="clip-path">
      <path id="Path_795" data-name="Path 795" class="cls-1" d="M5.243-95A5.244,5.244,0,0,0,0-89.758v30.991a5.242,5.242,0,0,0,5.243,5.242H117a5.244,5.244,0,0,0,5.243-5.242V-89.758A5.242,5.242,0,0,0,117-95Z" transform="translate(0 95)"/>
    </clipPath>
    <clipPath id="clip-path-2">
      <path id="Path_794" data-name="Path 794" class="cls-2" d="M-110-15.045H239.272V-277H-110Z" transform="translate(110 277)"/>
    </clipPath>
    <clipPath id="clip-path-3">
      <path id="Path_798" data-name="Path 798" class="cls-3" d="M95.155-41.518H93.074L91.934-45.1H87.972l-1.086,3.584H84.86l3.925-12.2H91.21l3.945,12.2Zm-3.564-5.088H88.317l1.013-3.186q.4-1.52.579-2.3h.037q.452,1.81.615,2.3Zm13.659.58a5,5,0,0,1-1.212,3.547,3.544,3.544,0,0,1-2.7,1.159,2.7,2.7,0,0,1-2.5-1.249h-.037v4.635H96.855v-9.487q0-1.411-.072-2.9H98.5l.109,1.395h.037a3.254,3.254,0,0,1,2.967-1.575,3.26,3.26,0,0,1,2.6,1.23A4.849,4.849,0,0,1,105.25-46.025Zm-1.99.072a3.624,3.624,0,0,0-.579-2.118,2,2,0,0,0-1.7-.869,2.031,2.031,0,0,0-1.311.48A2.224,2.224,0,0,0,98.9-47.2a2.561,2.561,0,0,0-.091.6v1.467a2.351,2.351,0,0,0,.588,1.621,1.949,1.949,0,0,0,1.528.661,2,2,0,0,0,1.718-.851A3.746,3.746,0,0,0,103.26-45.953Zm12.1-.072a5,5,0,0,1-1.213,3.547,3.54,3.54,0,0,1-2.695,1.159,2.693,2.693,0,0,1-2.5-1.249h-.037v4.635h-1.954v-9.487q0-1.411-.072-2.9h1.718l.109,1.395h.037a3.252,3.252,0,0,1,2.967-1.575,3.266,3.266,0,0,1,2.6,1.23A4.863,4.863,0,0,1,115.363-46.025Zm-1.99.072a3.624,3.624,0,0,0-.58-2.118,2,2,0,0,0-1.7-.869,2.033,2.033,0,0,0-1.312.48,2.223,2.223,0,0,0-.768,1.259,2.609,2.609,0,0,0-.091.6v1.467a2.359,2.359,0,0,0,.586,1.621,1.953,1.953,0,0,0,1.53.661,2,2,0,0,0,1.718-.851A3.746,3.746,0,0,0,113.373-45.953Zm13.3,1.014a3.253,3.253,0,0,1-1.083,2.534,4.8,4.8,0,0,1-3.322,1.068,5.812,5.812,0,0,1-3.16-.76l.453-1.629a5.353,5.353,0,0,0,2.824.779,2.669,2.669,0,0,0,1.72-.5,1.629,1.629,0,0,0,.614-1.333,1.7,1.7,0,0,0-.507-1.251,4.71,4.71,0,0,0-1.682-.943q-3.2-1.2-3.2-3.5a3.1,3.1,0,0,1,1.122-2.465,4.423,4.423,0,0,1,2.985-.961,5.916,5.916,0,0,1,2.767.579l-.488,1.593a4.8,4.8,0,0,0-2.334-.561,2.361,2.361,0,0,0-1.609.507,1.449,1.449,0,0,0-.488,1.1,1.492,1.492,0,0,0,.56,1.195,6.326,6.326,0,0,0,1.774.942,6.019,6.019,0,0,1,2.316,1.483A3.1,3.1,0,0,1,126.67-44.939Zm6.459-3.909h-2.153v4.272q0,1.63,1.14,1.629a3.473,3.473,0,0,0,.868-.091l.054,1.484a4.424,4.424,0,0,1-1.519.216,2.343,2.343,0,0,1-1.81-.706,3.47,3.47,0,0,1-.652-2.372v-4.435h-1.283v-1.467h1.283v-1.611l1.919-.579v2.19h2.153Zm9.716,2.86a4.828,4.828,0,0,1-1.158,3.331,4.134,4.134,0,0,1-3.222,1.34,3.931,3.931,0,0,1-3.083-1.285,4.68,4.68,0,0,1-1.149-3.24,4.78,4.78,0,0,1,1.185-3.348,4.1,4.1,0,0,1,3.192-1.3,4.014,4.014,0,0,1,3.112,1.285A4.627,4.627,0,0,1,142.845-45.989Zm-2.027.063a3.959,3.959,0,0,0-.524-2.088,1.93,1.93,0,0,0-1.754-1.053,1.959,1.959,0,0,0-1.791,1.053,4.035,4.035,0,0,0-.524,2.124,3.954,3.954,0,0,0,.524,2.087,1.97,1.97,0,0,0,1.774,1.053,1.955,1.955,0,0,0,1.754-1.071A3.974,3.974,0,0,0,140.818-45.926Zm8.377-2.671a3.39,3.39,0,0,0-.616-.054,1.845,1.845,0,0,0-1.592.779,2.93,2.93,0,0,0-.488,1.737v4.616h-1.953l.018-6.027q0-1.521-.073-2.77h1.7l.071,1.683h.054a3.009,3.009,0,0,1,.977-1.394,2.361,2.361,0,0,1,1.412-.471,3.135,3.135,0,0,1,.488.036Zm8.737,2.264a4.583,4.583,0,0,1-.071.887H152a2.553,2.553,0,0,0,.85,1.992,2.9,2.9,0,0,0,1.917.615,6.478,6.478,0,0,0,2.371-.416l.306,1.357a7.327,7.327,0,0,1-2.948.544,4.269,4.269,0,0,1-3.213-1.2,4.447,4.447,0,0,1-1.166-3.231A5.042,5.042,0,0,1,151.2-49.1a3.743,3.743,0,0,1,3.074-1.411,3.276,3.276,0,0,1,2.878,1.411A4.76,4.76,0,0,1,157.932-46.333Zm-1.863-.507a2.657,2.657,0,0,0-.379-1.5,1.706,1.706,0,0,0-1.557-.815,1.853,1.853,0,0,0-1.555.8,2.918,2.918,0,0,0-.578,1.52h4.069Z" transform="translate(-84.86 53.898)"/>
    </clipPath>
    <clipPath id="clip-path-4">
      <path id="Path_797" data-name="Path 797" class="cls-4" d="M-110-15.045H239.272V-277H-110Z" transform="translate(110 277)"/>
    </clipPath>
    <clipPath id="clip-path-5">
      <path id="Path_801" data-name="Path 801" class="cls-3" d="M92.442-74.767a3.011,3.011,0,0,1-.969,2.437,3.854,3.854,0,0,1-2.55.755,11.818,11.818,0,0,1-1.4-.072v-5.9a10.36,10.36,0,0,1,1.654-.125,3.564,3.564,0,0,1,2.373.685A2.769,2.769,0,0,1,92.442-74.767Zm-1.013.027a2.192,2.192,0,0,0-.555-1.61,2.188,2.188,0,0,0-1.623-.56,4.062,4.062,0,0,0-.773.062v4.482a5.066,5.066,0,0,0,.649.027,2.271,2.271,0,0,0,1.7-.613A2.457,2.457,0,0,0,91.429-74.74Zm6.381.916a2.371,2.371,0,0,1-.569,1.637,2.03,2.03,0,0,1-1.582.658,1.93,1.93,0,0,1-1.516-.632,2.3,2.3,0,0,1-.563-1.592,2.348,2.348,0,0,1,.582-1.645,2.018,2.018,0,0,1,1.569-.64,1.975,1.975,0,0,1,1.529.631A2.283,2.283,0,0,1,97.81-73.824Zm-1,.031a1.956,1.956,0,0,0-.257-1.026.948.948,0,0,0-.861-.517.963.963,0,0,0-.881.517,1.982,1.982,0,0,0-.258,1.043,1.955,1.955,0,0,0,.258,1.026.969.969,0,0,0,.871.517.958.958,0,0,0,.861-.526A1.944,1.944,0,0,0,96.814-73.793Zm8.194-2.156-1.352,4.322h-.88l-.56-1.877a14.055,14.055,0,0,1-.347-1.4h-.017a10.226,10.226,0,0,1-.347,1.4l-.595,1.877h-.89L98.75-75.949h.987l.488,2.055q.177.729.293,1.387h.017q.107-.542.356-1.378l.613-2.063h.783l.587,2.019q.213.738.346,1.423h.027a13.6,13.6,0,0,1,.293-1.423l.524-2.019h.943Zm4.978,4.322h-.96V-74.1q0-1.144-.871-1.144a.866.866,0,0,0-.694.314,1.116,1.116,0,0,0-.267.741v2.564h-.96v-3.086q0-.569-.035-1.237h.844l.045.676h.027a1.388,1.388,0,0,1,.5-.522,1.622,1.622,0,0,1,.87-.243,1.378,1.378,0,0,1,1.005.392,1.9,1.9,0,0,1,.5,1.432Zm1.689-6.305h.959v6.305h-.959Zm6.613,4.108a2.372,2.372,0,0,1-.569,1.637,2.032,2.032,0,0,1-1.582.658,1.927,1.927,0,0,1-1.516-.632,2.3,2.3,0,0,1-.564-1.592,2.348,2.348,0,0,1,.582-1.645,2.017,2.017,0,0,1,1.568-.64,1.977,1.977,0,0,1,1.53.631A2.283,2.283,0,0,1,118.289-73.824Zm-1,.031a1.956,1.956,0,0,0-.257-1.026.947.947,0,0,0-.86-.517.961.961,0,0,0-.881.517,1.982,1.982,0,0,0-.257,1.043,1.955,1.955,0,0,0,.257,1.026.969.969,0,0,0,.871.517.957.957,0,0,0,.86-.526A1.935,1.935,0,0,0,117.292-73.793Zm5.644,2.166h-.862l-.071-.5h-.027a1.478,1.478,0,0,1-1.262.6,1.3,1.3,0,0,1-.986-.391,1.228,1.228,0,0,1-.338-.88,1.343,1.343,0,0,1,.662-1.209,3.437,3.437,0,0,1,1.863-.409V-74.5q0-.854-.9-.854a2.008,2.008,0,0,0-1.126.32l-.2-.631a2.769,2.769,0,0,1,1.482-.373q1.693,0,1.7,1.788v1.592A6.759,6.759,0,0,0,122.936-71.627Zm-1-1.485v-.667q-1.589-.028-1.589.871a.651.651,0,0,0,.184.507.672.672,0,0,0,.469.169.969.969,0,0,0,.587-.2.819.819,0,0,0,.333-.512A.814.814,0,0,0,121.939-73.113Zm6.453,1.485h-.852l-.045-.694h-.027a1.436,1.436,0,0,1-1.387.792,1.625,1.625,0,0,1-1.3-.613,2.391,2.391,0,0,1-.515-1.592,2.507,2.507,0,0,1,.56-1.7,1.721,1.721,0,0,1,1.333-.605,1.294,1.294,0,0,1,1.217.587h.018v-2.481h.961v5.141Q128.359-72.16,128.393-71.627Zm-1-1.823v-.721a1.414,1.414,0,0,0-.027-.3,1.094,1.094,0,0,0-.347-.582.944.944,0,0,0-.642-.236.985.985,0,0,0-.845.427,1.832,1.832,0,0,0-.308,1.094,1.708,1.708,0,0,0,.3,1.041.988.988,0,0,0,.839.426.925.925,0,0,0,.759-.356A1.185,1.185,0,0,0,127.4-73.45Zm9.208-.374a2.372,2.372,0,0,1-.569,1.637,2.029,2.029,0,0,1-1.582.658,1.932,1.932,0,0,1-1.516-.632,2.3,2.3,0,0,1-.564-1.592,2.348,2.348,0,0,1,.582-1.645,2.018,2.018,0,0,1,1.57-.64,1.973,1.973,0,0,1,1.528.631A2.283,2.283,0,0,1,136.606-73.824Zm-1,.031a1.956,1.956,0,0,0-.257-1.026.95.95,0,0,0-.862-.517.965.965,0,0,0-.881.517,1.982,1.982,0,0,0-.257,1.043,1.956,1.956,0,0,0,.257,1.026.969.969,0,0,0,.871.517.959.959,0,0,0,.862-.526A1.952,1.952,0,0,0,135.61-73.793Zm6.158,2.166h-.959V-74.1q0-1.144-.871-1.144a.863.863,0,0,0-.693.314,1.112,1.112,0,0,0-.267.741v2.564h-.961v-3.086q0-.569-.034-1.237h.843l.045.676h.027a1.4,1.4,0,0,1,.5-.522,1.626,1.626,0,0,1,.871-.243,1.377,1.377,0,0,1,1,.392,1.9,1.9,0,0,1,.5,1.432Zm6.463-3.6h-1.057v2.1c0,.534.188.8.56.8a1.69,1.69,0,0,0,.428-.045l.025.729a2.156,2.156,0,0,1-.746.107,1.148,1.148,0,0,1-.888-.347,1.7,1.7,0,0,1-.321-1.165V-75.23H145.6v-.72h.631v-.792l.941-.284v1.075h1.057v.721Zm5.084,3.6h-.961v-2.457q0-1.162-.87-1.163a.917.917,0,0,0-.916.674,1.207,1.207,0,0,0-.045.346v2.6h-.959v-6.3h.959v2.6h.018a1.451,1.451,0,0,1,1.3-.711,1.338,1.338,0,0,1,.988.391,1.969,1.969,0,0,1,.488,1.45Zm5.244-2.365a2.322,2.322,0,0,1-.036.435h-2.88a1.26,1.26,0,0,0,.417.978,1.43,1.43,0,0,0,.943.3,3.18,3.18,0,0,0,1.165-.2l.15.667a3.615,3.615,0,0,1-1.45.267,2.093,2.093,0,0,1-1.577-.591,2.179,2.179,0,0,1-.573-1.587,2.474,2.474,0,0,1,.533-1.627,1.836,1.836,0,0,1,1.51-.693,1.606,1.606,0,0,1,1.412.693A2.308,2.308,0,0,1,158.559-73.993Zm-.916-.248a1.294,1.294,0,0,0-.186-.738.839.839,0,0,0-.764-.4.912.912,0,0,0-.764.391,1.455,1.455,0,0,0-.285.747Z" transform="translate(-87.518 77.932)"/>
    </clipPath>
    <clipPath id="clip-path-7">
      <path id="Path_804" data-name="Path 804" class="cls-3" d="M37.813-65.462A5.178,5.178,0,0,0,40.973-60.7a11.858,11.858,0,0,1-1.644,3.348c-.968,1.448-1.983,2.864-3.595,2.89-1.565.036-2.092-.921-3.888-.921-1.812,0-2.373.9-3.875.957-1.535.056-2.708-1.546-3.711-2.981-2.006-2.93-3.568-8.258-1.474-11.883a5.753,5.753,0,0,1,4.842-2.954c1.537-.031,2.963,1.038,3.907,1.038.926,0,2.689-1.279,4.507-1.088a5.487,5.487,0,0,1,4.321,2.336A5.357,5.357,0,0,0,37.813-65.462Zm-2.957-8.759a4.437,4.437,0,0,1-3.5,1.657A5.018,5.018,0,0,1,32.589-76.2,5.371,5.371,0,0,1,36.062-78,5.273,5.273,0,0,1,34.855-74.221Z" transform="translate(-21.792 78)"/>
    </clipPath>
  </defs>
  <g id="Footer_Apple" transform="translate(0 0)">
    <g id="Group_754" data-name="Group 754" class="cls-5" transform="translate(0 0)">
      <g id="Group_753" data-name="Group 753" class="cls-6" transform="translate(-48.025 -79.46)">
        <path id="Path_793" data-name="Path 793" class="cls-7" d="M-5-54.158H121.611V-100H-5Z" transform="translate(50.842 177.277)"/>
      </g>
    </g>
    <g id="Group_756" data-name="Group 756" class="cls-8" transform="translate(37.049 17.945)">
      <g id="Group_755" data-name="Group 755" class="cls-9" transform="translate(-85.074 -97.405)">
        <path id="Path_796" data-name="Path 796" class="cls-10" d="M79.86-38.567H157.3V-58.9H79.86Z" transform="translate(3.031 154.12)"/>
      </g>
    </g>
    <g id="Group_758" data-name="Group 758" class="cls-11" transform="translate(38.209 7.452)">
      <g id="Group_757" data-name="Group 757" class="cls-9" transform="translate(-86.234 -86.911)">
        <path id="Path_799" data-name="Path 799" class="cls-10" d="M82.518-72.163h75.408V-82.932H82.518Z" transform="translate(1.534 167.661)"/>
      </g>
    </g>
    <g id="Group_760" data-name="Group 760" class="cls-12" transform="translate(9.514 7.422)">
      <g id="Group_759" data-name="Group 759" class="cls-9" transform="translate(-57.539 -86.882)">
        <path id="Path_802" data-name="Path 802" class="cls-10" d="M16.792-55.058H40.339V-83H16.792Z" transform="translate(38.564 167.699)"/>
      </g>
    </g>
  </g>
</svg>
