<svg xmlns="http://www.w3.org/2000/svg" viewBox="0 0 39.039 26.84">
  <defs>
    <style>
      .cls-1 {
        fill: #f14339;
      }
    </style>
  </defs>
  <g id="Group_6007" data-name="Group 6007" transform="translate(-0.001)">
    <g id="Group_6004" data-name="Group 6004" transform="translate(6.344)">
      <path id="Path_7955" data-name="Path 7955" class="cls-1" d="M30.332,21.228a1.153,1.153,0,0,1-1.22-1.22v-6.1C28.99,7.564,24.232,2.44,18.376,2.44S7.762,7.564,7.64,13.908v6.1a1.153,1.153,0,0,1-1.22,1.22,1.153,1.153,0,0,1-1.22-1.22V13.786C5.322,6.222,11.3,0,18.376,0c7.2,0,13.054,6.222,13.176,13.908v6.1A1.223,1.223,0,0,1,30.332,21.228Z" transform="translate(-5.2)"/>
    </g>
    <g id="Group_6005" data-name="Group 6005" transform="translate(30.256 12.322)">
      <path id="Path_7956" data-name="Path 7956" class="cls-1" d="M29.192,24.618H26.02A1.153,1.153,0,0,1,24.8,23.4V11.32a1.153,1.153,0,0,1,1.22-1.22h3.172a4.509,4.509,0,0,1,4.392,4.636V19.86A4.542,4.542,0,0,1,29.192,24.618Zm-1.952-2.44h1.952a2.067,2.067,0,0,0,1.952-2.2V14.858a2.067,2.067,0,0,0-1.952-2.2H27.24Z" transform="translate(-24.8 -10.1)"/>
    </g>
    <g id="Group_6006" data-name="Group 6006" transform="translate(0 12.444)">
      <path id="Path_7957" data-name="Path 7957" class="cls-1" d="M7.564,24.6H4.392A4.509,4.509,0,0,1,0,19.96V14.836A4.509,4.509,0,0,1,4.392,10.2H7.564a1.153,1.153,0,0,1,1.22,1.22V23.376A1.153,1.153,0,0,1,7.564,24.6ZM4.392,12.518A2.108,2.108,0,0,0,2.44,14.836V19.96a2.067,2.067,0,0,0,1.952,2.2H6.344V12.518Z" transform="translate(0 -10.2)"/>
    </g>
  </g>
</svg>
