<svg xmlns="http://www.w3.org/2000/svg" viewBox="0 0 35.916 35.916">
  <defs>
    <style>
      .cls-1, .cls-2 {
        fill: none;
        stroke: #f14339;
        stroke-linecap: round;
        stroke-miterlimit: 10;
        stroke-width: 1.5px;
      }

      .cls-2 {
        stroke-dasharray: 2 4 2 4 2 4;
      }
    </style>
  </defs>
  <g id="Group_6011" data-name="Group 6011" transform="translate(-0.25 -0.25)">
    <path id="Path_7972" data-name="Path 7972" class="cls-1" d="M11.087,1H1V11.087"/>
    <path id="Path_7973" data-name="Path 7973" class="cls-1" d="M43,52.494h9.494V43" transform="translate(-17.078 -17.078)"/>
    <path id="Path_7974" data-name="Path 7974" class="cls-1" d="M52.494,11.087V1H43" transform="translate(-17.078)"/>
    <path id="Path_7975" data-name="Path 7975" class="cls-1" d="M1,43v9.494H11.087" transform="translate(0 -17.078)"/>
    <path id="Path_7976" data-name="Path 7976" class="cls-1" d="M30.1,29.1s1.305,3.145.949,13.529" transform="translate(-11.833 -11.426)"/>
    <path id="Path_7977" data-name="Path 7977" class="cls-1" d="M17.9,10.255a15.619,15.619,0,0,1,2.433-1.246A11.282,11.282,0,0,1,25.139,8,12.577,12.577,0,0,1,36.71,15.655a18.55,18.55,0,0,1,1.424,5.874" transform="translate(-6.872 -2.846)"/>
    <path id="Path_7978" data-name="Path 7978" class="cls-1" d="M8.5,23.1a12.1,12.1,0,0,1,3.56-8.6" transform="translate(-3.05 -5.489)"/>
    <path id="Path_7979" data-name="Path 7979" class="cls-1" d="M9.444,35.349A19.643,19.643,0,0,1,8.495,29" transform="translate(-3.045 -11.385)"/>
    <path id="Path_7980" data-name="Path 7980" class="cls-1" d="M46.9,29a47.907,47.907,0,0,1,.3,8.782" transform="translate(-18.664 -11.385)"/>
    <path id="Path_7981" data-name="Path 7981" class="cls-1" d="M13.8,22.447a9.728,9.728,0,0,1,5.934-8.841,9.63,9.63,0,0,1,4.094-.712c3.738.119,7.714,3.382,8.96,6.943a16.793,16.793,0,0,1,.653,2.611" transform="translate(-5.205 -4.833)"/>
    <path id="Path_7982" data-name="Path 7982" class="cls-1" d="M14.909,40.115a43.618,43.618,0,0,0-.3-6.883,15.511,15.511,0,0,0-.356-1.6A10.437,10.437,0,0,1,13.9,28.9" transform="translate(-5.245 -11.345)"/>
    <path id="Path_7983" data-name="Path 7983" class="cls-1" d="M32.548,24.405c.475,2.492.415,5.7.237,11.156M24.122,17.878a5.852,5.852,0,0,1,1.424-.178,6.747,6.747,0,0,1,6.23,4.094,11.6,11.6,0,0,1,.771,2.552M18.9,24.405a6.829,6.829,0,0,1,2.789-5.459m-1.9,18.1c.237-7.536-.475-9.85-.593-10.265a8.141,8.141,0,0,1-.3-2.374" transform="translate(-7.279 -6.791)"/>
    <path id="Path_7984" data-name="Path 7984" class="cls-2" d="M37.459,46.2c0,.89,0,1.839-.059,2.908" transform="translate(-14.801 -18.379)"/>
    <path id="Path_7985" data-name="Path 7985" class="cls-1" d="M36.1,29a31.952,31.952,0,0,1,.831,7.833" transform="translate(-14.272 -11.385)"/>
    <path id="Path_7986" data-name="Path 7986" class="cls-1" d="M24.4,26.764a3.439,3.439,0,0,1,2.077-3.026,3.193,3.193,0,0,1,1.305-.237,3.36,3.36,0,0,1,3.086,2.077,9.242,9.242,0,0,1,.415,1.246" transform="translate(-9.515 -9.149)"/>
    <path id="Path_7987" data-name="Path 7987" class="cls-1" d="M25.449,42.47c.3-8.782-.653-11.986-.712-12.164A3.382,3.382,0,0,1,24.5,29" transform="translate(-9.556 -11.385)"/>
  </g>
</svg>
