<svg id="Group_5998" data-name="Group 5998" xmlns="http://www.w3.org/2000/svg" viewBox="0 0 32 30">
  <defs>
    <style>
      .cls-1 {
        fill: #f14339;
      }
    </style>
  </defs>
  <path id="Path_7946" data-name="Path 7946" class="cls-1" d="M16,30a.779.779,0,0,1-.7-.3C12.2,26.3,2.3,15.1,2.1,15A9.2,9.2,0,0,1,0,9.2,9.261,9.261,0,0,1,9.3,0,9.806,9.806,0,0,1,16,2.7,9.446,9.446,0,0,1,22.7,0,9.261,9.261,0,0,1,32,9.2a8.553,8.553,0,0,1-2.1,5.7L16.8,29.7a1.136,1.136,0,0,1-.8.3ZM9.3,2A7.256,7.256,0,0,0,2,9.2a7.487,7.487,0,0,0,1.6,4.5c.2.3,7.8,8.8,12.4,13.9L28.4,13.7A6.989,6.989,0,0,0,30,9.3,7.277,7.277,0,0,0,22.7,2a7.443,7.443,0,0,0-5.9,2.8,1.234,1.234,0,0,1-.8.4h0a.909.909,0,0,1-.8-.4A7.3,7.3,0,0,0,9.3,2Z"/>
</svg>
