<svg xmlns="http://www.w3.org/2000/svg" viewBox="0 0 13.244 12.025">
  <defs>
    <style>
      .cls-1 {
        opacity: 0.6;
      }

      .cls-2 {
        fill: #fff;
      }
    </style>
  </defs>
  <g id="LinkedIn_1_" class="cls-1">
    <rect id="Rectangle_3065" data-name="Rectangle 3065" class="cls-2" width="2.577" height="8.16" transform="translate(0.322 3.865)"/>
    <path id="Path_7989" data-name="Path 7989" class="cls-2" d="M17.976,10.5A2.654,2.654,0,0,0,15.4,11.86V10.572H12.5c.036.68,0,8.16,0,8.16h2.9v-4.4a1.986,1.986,0,0,1,.072-.68,1.461,1.461,0,0,1,1.4-1c1,0,1.467.752,1.467,1.861v4.223h2.935v-4.51C21.233,11.681,19.8,10.5,17.976,10.5Z" transform="translate(-8.026 -6.742)"/>
    <path id="Path_7990" data-name="Path 7990" class="cls-2" d="M1.575,0A1.433,1.433,0,0,0,0,1.432a1.415,1.415,0,0,0,1.539,1.4h.036A1.433,1.433,0,0,0,3.15,1.4,1.467,1.467,0,0,0,1.575,0Z"/>
  </g>
</svg>
