<svg xmlns="http://www.w3.org/2000/svg" viewBox="0 0 153.281 12.598">
  <defs>
    <style>
      .cls-1 {
        fill: #fff;
      }
    </style>
  </defs>
  <path id="Logo" class="cls-1" d="M11.855-178.069h0a2.7,2.7,0,0,0-.765-.517,2.354,2.354,0,0,0-.956-.2H0v12.552H2.328v-4.3H6.422l3.61,4.3h2.531v-.607L9.47-170.533h.652a2.354,2.354,0,0,0,.956-.2,2.7,2.7,0,0,0,.765-.517,2.521,2.521,0,0,0,.529-.765,2.544,2.544,0,0,0,.191-.956v-3.374a2.772,2.772,0,0,0-.18-.956A3,3,0,0,0,11.855-178.069Zm-1.62,5.106a.089.089,0,0,1-.09.09H2.452a.16.16,0,0,1-.067-.022.054.054,0,0,1-.022-.068v-3.386a.16.16,0,0,1,.022-.067.083.083,0,0,1,.067-.023h7.693a.16.16,0,0,1,.067.023.083.083,0,0,1,.022.067v3.386Zm33-.416L38.68-178.8H36.161v12.564h2.328V-175.4l4.746,5.646,4.758-5.646v9.167h2.328V-178.8H47.78Zm12.53-3.093h9.178l-9.178,7.7v2.531H68.329v-2.328H59.162l9.167-7.7V-178.8H55.765Zm24.576,2.992-4.207-5.32H73.368l5.8,7.873v4.69H81.5v-4.69l5.8-7.873H84.514Zm-50.457-4.6a2.487,2.487,0,0,0-.787-.529,2.543,2.543,0,0,0-.956-.191H20.448a2.543,2.543,0,0,0-.956.191,2.487,2.487,0,0,0-.787.529,2.487,2.487,0,0,0-.529.787,2.332,2.332,0,0,0-.18.956V-166.2h2.216V-168.5h7.952v2.283h.056v.011h2.328v-10.145a2.772,2.772,0,0,0-.18-.956A1.69,1.69,0,0,0,29.885-178.08ZM28.2-176.449h0v5.7h-6.76l-1.192,1.181v-1.327h.011v-5.7H28.2v.146Zm81.365-1.6h0a2.7,2.7,0,0,0-.765-.517,2.355,2.355,0,0,0-.956-.2H97.708v12.552h2.328v-4.3h4.094l3.61,4.3h2.531v-.607l-3.082-3.689h.652a2.354,2.354,0,0,0,.956-.2,2.7,2.7,0,0,0,.765-.517,2.522,2.522,0,0,0,.529-.765,2.544,2.544,0,0,0,.191-.956v-3.386a2.772,2.772,0,0,0-.18-.956A3.55,3.55,0,0,0,109.562-178.046Zm-1.62,5.1a.089.089,0,0,1-.09.09H100.16a.16.16,0,0,1-.067-.022.054.054,0,0,1-.022-.067v-3.386a.16.16,0,0,1,.022-.067.083.083,0,0,1,.067-.022h7.693a.089.089,0,0,1,.09.09h0Zm7.772-5.826h2.328v12.564h-2.328Zm37.567,2.328v-2.328H141.708v12.564h11.574v-2.328h-9.245v-2.789h7.423v-2.328h-7.423v-2.789Zm-17.839-1.62h0a2.487,2.487,0,0,0-.787-.529,2.544,2.544,0,0,0-.956-.191H123.566v12.564H133.7a2.544,2.544,0,0,0,.956-.191,2.487,2.487,0,0,0,.787-.529,2.487,2.487,0,0,0,.529-.787,2.544,2.544,0,0,0,.191-.956v-7.693a2.544,2.544,0,0,0-.191-.956A3.537,3.537,0,0,0,135.443-178.069Zm-1.62,9.414a.089.089,0,0,1-.09.09h-6.659l-1.136,1.136v-8.919a.16.16,0,0,1,.022-.067.083.083,0,0,1,.067-.023h7.693a.089.089,0,0,1,.09.09h0v7.693Z" transform="translate(0 178.801)"/>
</svg>
