<svg xmlns="http://www.w3.org/2000/svg" viewBox="0 0 149.248 12.266">
  <defs>
    <style>
      .cls-1 {
        fill: #fff;
      }
    </style>
  </defs>
  <path id="Logo" class="cls-1" d="M11.543-178.088h0a2.629,2.629,0,0,0-.745-.5,2.293,2.293,0,0,0-.931-.2H0v12.222H2.267v-4.184H6.253l3.515,4.184h2.464v-.591l-3.012-3.592h.635a2.292,2.292,0,0,0,.931-.2,2.628,2.628,0,0,0,.745-.5,2.455,2.455,0,0,0,.515-.745,2.477,2.477,0,0,0,.186-.931v-3.285a2.7,2.7,0,0,0-.175-.931A2.918,2.918,0,0,0,11.543-178.088Zm-1.577,4.972a.086.086,0,0,1-.088.088H2.387a.155.155,0,0,1-.066-.022.053.053,0,0,1-.022-.066v-3.3a.156.156,0,0,1,.022-.066.08.08,0,0,1,.066-.022H9.878a.156.156,0,0,1,.066.022.08.08,0,0,1,.022.066v3.3Zm32.132-.405L37.663-178.8H35.209v12.233h2.267v-8.926l4.622,5.5,4.633-5.5v8.926H49V-178.8H46.522Zm12.2-3.012h8.937l-8.937,7.5v2.464H66.531v-2.267H57.606l8.926-7.5V-178.8H54.3Zm23.929,2.913-4.1-5.18H71.437l5.651,7.666v4.567h2.267v-4.567l5.651-7.666H82.291ZM29.1-178.1a2.421,2.421,0,0,0-.767-.515,2.477,2.477,0,0,0-.931-.186H19.91a2.477,2.477,0,0,0-.931.186,2.421,2.421,0,0,0-.767.515,2.421,2.421,0,0,0-.515.767,2.27,2.27,0,0,0-.175.931v9.867H19.68v-2.234h7.743v2.223h.055v.011h2.267v-9.878a2.7,2.7,0,0,0-.175-.931A1.645,1.645,0,0,0,29.1-178.1Zm-1.643,1.588h0v5.552H20.874l-1.161,1.15V-171.1h.011v-5.552h7.732v.142Zm79.224-1.555h0a2.629,2.629,0,0,0-.745-.5,2.292,2.292,0,0,0-.931-.2H95.137v12.222H97.4v-4.184h3.986l3.515,4.184h2.464v-.591l-3-3.592H105a2.292,2.292,0,0,0,.931-.2,2.629,2.629,0,0,0,.745-.5,2.455,2.455,0,0,0,.515-.745,2.477,2.477,0,0,0,.186-.931v-3.3a2.7,2.7,0,0,0-.175-.931A3.456,3.456,0,0,0,106.68-178.066Zm-1.577,4.961a.086.086,0,0,1-.088.088H97.524a.156.156,0,0,1-.066-.022.053.053,0,0,1-.022-.066v-3.3a.156.156,0,0,1,.022-.066.08.08,0,0,1,.066-.022h7.491a.086.086,0,0,1,.088.088h0Zm7.568-5.673h2.267v12.233H112.67Zm36.578,2.267v-2.267H137.98v12.233h11.269v-2.267h-9v-2.716h7.228V-173.8h-7.228v-2.716Zm-17.369-1.577h0a2.421,2.421,0,0,0-.767-.515,2.477,2.477,0,0,0-.931-.186h-9.867v12.233h9.867a2.477,2.477,0,0,0,.931-.186,2.421,2.421,0,0,0,.767-.515,2.421,2.421,0,0,0,.515-.767,2.477,2.477,0,0,0,.186-.931v-7.491a2.477,2.477,0,0,0-.186-.931A3.444,3.444,0,0,0,131.879-178.088Zm-1.577,9.167a.086.086,0,0,1-.088.088h-6.483l-1.106,1.106v-8.685a.156.156,0,0,1,.022-.066.08.08,0,0,1,.066-.022H130.2a.086.086,0,0,1,.088.088h0v7.491Z" transform="translate(0 178.8)"/>
</svg>
