<?xml version="1.0" encoding="utf-8"?>
<!-- Generator: Adobe Illustrator 22.1.0, SVG Export Plug-In . SVG Version: 6.00 Build 0)  -->
<svg version="1.1" id="Layer_1" xmlns="http://www.w3.org/2000/svg" xmlns:xlink="http://www.w3.org/1999/xlink" x="0px" y="0px"
	 viewBox="0 0 149.2 12.3" style="enable-background:new 0 0 149.2 12.3;" xml:space="preserve">
<style type="text/css">
	.st0{fill:#2D132C;}
</style>
<path id="Logo" class="st0" d="M11.5,0.7L11.5,0.7c-0.2-0.2-0.5-0.4-0.7-0.5C10.5,0.1,10.2,0,9.9,0H0v12.2h2.3V8.1h4l3.5,4.2h2.5
	v-0.6l-3-3.6h0.6c0.3,0,0.6-0.1,0.9-0.2c0.3-0.1,0.5-0.3,0.7-0.5c0.2-0.2,0.4-0.5,0.5-0.7c0.1-0.3,0.2-0.6,0.2-0.9V2.4
	c0-0.3-0.1-0.6-0.2-0.9C11.9,1.2,11.8,0.9,11.5,0.7z M10,5.7C10,5.7,9.9,5.8,10,5.7C9.9,5.8,9.9,5.8,10,5.7L2.4,5.8c0,0,0,0-0.1,0
	c0,0,0,0,0-0.1V2.4c0,0,0,0,0-0.1c0,0,0,0,0.1,0h7.5c0,0,0,0,0.1,0c0,0,0,0,0,0.1V5.7z M42.1,5.3L37.7,0h-2.5v12.2h2.3V3.3l4.6,5.5
	l4.6-5.5v8.9H49V0h-2.5L42.1,5.3z M54.3,2.3h8.9l-8.9,7.5v2.5h12.2V10h-8.9l8.9-7.5V0H54.3L54.3,2.3z M78.2,5.2L74.1,0h-2.7l5.7,7.7
	v4.6h2.3V7.7L85,0h-2.7L78.2,5.2z M29.1,0.7c-0.2-0.2-0.5-0.4-0.8-0.5C28,0.1,27.7,0,27.4,0h-7.5c-0.3,0-0.6,0.1-0.9,0.2
	c-0.3,0.1-0.5,0.3-0.8,0.5c-0.2,0.2-0.4,0.5-0.5,0.8c-0.1,0.3-0.2,0.6-0.2,0.9v9.9h2.2V10h7.7v2.2h0.1v0h2.3V2.4
	c0-0.3-0.1-0.6-0.2-0.9C29.5,1.2,29.3,0.9,29.1,0.7z M27.5,2.3L27.5,2.3v5.6h-6.6L19.7,9V7.7h0V2.1h7.7L27.5,2.3L27.5,2.3z
	 M106.7,0.7L106.7,0.7c-0.2-0.2-0.5-0.4-0.7-0.5C105.6,0.1,105.3,0,105,0h-9.9v12.2h2.3V8.1h4l3.5,4.2h2.5v-0.6l-3-3.6h0.6
	c0.3,0,0.6-0.1,0.9-0.2c0.3-0.1,0.5-0.3,0.7-0.5c0.2-0.2,0.4-0.5,0.5-0.7c0.1-0.3,0.2-0.6,0.2-0.9V2.4c0-0.3-0.1-0.6-0.2-0.9
	C107.1,1.2,106.9,1,106.7,0.7L106.7,0.7z M105.1,5.7C105.1,5.7,105.1,5.8,105.1,5.7C105,5.8,105,5.8,105.1,5.7l-7.6,0.1
	c0,0,0,0-0.1,0c0,0,0,0,0-0.1V2.4c0,0,0,0,0-0.1c0,0,0,0,0.1,0h7.5c0,0,0.1,0,0.1,0.1c0,0,0,0,0,0l0,0L105.1,5.7z M112.7,0h2.3v12.2
	h-2.3L112.7,0z M149.3,2.3V0H138v12.2h11.3V10h-9V7.3h7.2V5h-7.2V2.3L149.3,2.3z M131.9,0.7L131.9,0.7c-0.2-0.2-0.5-0.4-0.8-0.5
	c-0.3-0.1-0.6-0.2-0.9-0.2h-9.9v12.2h9.9c0.3,0,0.6-0.1,0.9-0.2c0.3-0.1,0.5-0.3,0.8-0.5c0.2-0.2,0.4-0.5,0.5-0.8
	c0.1-0.3,0.2-0.6,0.2-0.9V2.4c0-0.3-0.1-0.6-0.2-0.9C132.3,1.2,132.1,0.9,131.9,0.7L131.9,0.7z M130.3,9.9
	C130.3,9.9,130.3,10,130.3,9.9C130.2,10,130.2,10,130.3,9.9l-6.6,0.1l-1.1,1.1V2.4c0,0,0,0,0-0.1c0,0,0,0,0.1,0h7.5
	c0,0,0.1,0,0.1,0.1c0,0,0,0,0,0l0,0L130.3,9.9L130.3,9.9z"/>
</svg>
