<svg xmlns="http://www.w3.org/2000/svg" viewBox="0 0 6.936 6.936">
  <defs>
    <style>
      .cls-1 {
        fill: #f14339;
      }

      .cls-2 {
        fill: #3e293d;
      }
    </style>
  </defs>
  <g id="Path_274-2_2_" transform="translate(0 -0.001)">
    <path id="Path_794" data-name="Path 794" class="cls-1" d="M-395.146-364.492a2.735,2.735,0,0,1-1.943-.811,2.735,2.735,0,0,1-.811-1.943,2.735,2.735,0,0,1,.811-1.943,2.735,2.735,0,0,1,1.943-.811,2.735,2.735,0,0,1,1.943.811,2.735,2.735,0,0,1,.811,1.943,2.735,2.735,0,0,1-.811,1.943A2.823,2.823,0,0,1-395.146-364.492Z" transform="translate(398.613 370.689)"/>
    <path id="Path_795" data-name="Path 795" class="cls-2" d="M-397.333-367.341a1.984,1.984,0,0,0,1.992-1.992,1.984,1.984,0,0,0-1.992-1.992,1.984,1.984,0,0,0-1.992,1.992,1.984,1.984,0,0,0,1.992,1.992m0,1.475a3.463,3.463,0,0,1-3.467-3.467,3.463,3.463,0,0,1,3.467-3.467,3.463,3.463,0,0,1,3.467,3.467A3.463,3.463,0,0,1-397.333-365.865Z" transform="translate(400.8 372.8)"/>
  </g>
</svg>
