<svg xmlns="http://www.w3.org/2000/svg" viewBox="0 0 1268.283 268.232">
  <defs>
    <style>
      .cls-1 {
        fill: none;
        stroke: #f14339;
        stroke-miterlimit: 10;
        stroke-width: 8px;
      }

      .cls-2 {
        fill: #f14339;
      }

      .cls-3 {
        fill: #3e293d;
      }
    </style>
  </defs>
  <g id="Group_5978" data-name="Group 5978" transform="translate(801.932 -165.5)">
    <path id="Ride" class="cls-1" d="M446.647,364.157,308.232,254.447l-57.533-45.6a20.516,20.516,0,0,0-28.922,3.471,20.24,20.24,0,0,0-4.338,12.726v44.974A20.645,20.645,0,0,0,237.973,290.7a20.326,20.326,0,0,0,14.606-6.074l103.4-103.4A35.3,35.3,0,0,0,366.388,156.5h0a34.9,34.9,0,0,0-34.851-35H-800.932" transform="translate(-1 48)"/>
    <path id="Path_1" data-name="Path 1" class="cls-2" d="M-86.476-61.651a16.112,16.112,0,0,1-11.444-4.78,16.113,16.113,0,0,1-4.78-11.444A16.113,16.113,0,0,1-97.92-89.32,16.112,16.112,0,0,1-86.476-94.1a16.112,16.112,0,0,1,11.444,4.78,16.113,16.113,0,0,1,4.78,11.444,16.113,16.113,0,0,1-4.78,11.444A16.112,16.112,0,0,1-86.476-61.651Z" transform="translate(532.403 491.037)"/>
    <path id="Pointer" class="cls-3" d="M-85.175-64.7A11.685,11.685,0,0,0-73.442-76.43,11.808,11.808,0,0,0-85.175-88.308,11.685,11.685,0,0,0-96.909-76.575,11.9,11.9,0,0,0-85.175-64.7m0,8.692A20.4,20.4,0,0,1-105.6-76.43,20.525,20.525,0,0,1-85.175-97,20.4,20.4,0,0,1-64.751-76.575,20.525,20.525,0,0,1-85.175-56Z" transform="translate(531.102 489.736)"/>
  </g>
</svg>
