<?xml version="1.0" encoding="utf-8"?>
<!-- Generator: Adobe Illustrator 23.0.0, SVG Export Plug-In . SVG Version: 6.00 Build 0)  -->
<svg version="1.1" id="Layer_1" xmlns="http://www.w3.org/2000/svg" xmlns:xlink="http://www.w3.org/1999/xlink" x="0px" y="0px"
	 viewBox="0 0 1268.3 268.2" style="enable-background:new 0 0 1268.3 268.2;" xml:space="preserve">
<style type="text/css">
	.st0{fill:none;stroke:#F14339;stroke-width:8;stroke-miterlimit:10;}
	.st1{fill:#F14339;}
	.st2{fill:#3E293D;}
</style>
<path id="Ride" class="st0" d="M1247.6,246.7l-138.4-109.7l-57.5-45.6c-8.9-7-21.8-5.5-28.8,3.3c0,0-0.1,0.1-0.1,0.1
	c-2.9,3.6-4.4,8.1-4.3,12.7v45c0,11.4,9.2,20.6,20.5,20.7c5.5,0,10.8-2.2,14.6-6.1l103.4-103.4c6.6-6.6,10.3-15.4,10.4-24.7l0,0
	c0.1-19.3-15.5-34.9-34.8-35c0,0,0,0-0.1,0H0"/>
<g>
	<path id="Path_1" class="st1" d="M1247.9,263.9c-4.3,0-8.4-1.7-11.4-4.8c-3.1-3-4.8-7.1-4.8-11.4c0-4.3,1.7-8.4,4.8-11.4
		c3-3.1,7.1-4.8,11.4-4.8c4.3,0,8.4,1.7,11.4,4.8c3.1,3,4.8,7.1,4.8,11.4c0,4.3-1.7,8.4-4.8,11.4
		C1256.3,262.2,1252.2,263.9,1247.9,263.9z"/>
	<path id="Pointer" class="st2" d="M1247.9,259.5c6.5,0,11.7-5.2,11.7-11.6c0,0,0-0.1,0-0.1c0-6.5-5.2-11.8-11.7-11.9
		c-6.5,0-11.7,5.2-11.7,11.6c0,0,0,0.1,0,0.1C1236.1,254.2,1241.4,259.4,1247.9,259.5 M1247.9,268.2c-11.3,0-20.4-9.1-20.4-20.4
		c0,0,0,0,0,0c0-11.3,9.1-20.5,20.4-20.6c11.3,0,20.4,9.1,20.4,20.4c0,0,0,0,0,0C1268.3,259,1259.2,268.2,1247.9,268.2L1247.9,268.2
		z"/>
</g>
</svg>
