<svg xmlns="http://www.w3.org/2000/svg" viewBox="0 0 35.699 34.4">
  <defs>
    <style>
      .cls-1 {
        fill: none;
        stroke: #f14339;
        stroke-linecap: round;
        stroke-linejoin: round;
        stroke-miterlimit: 10;
        stroke-width: 2px;
      }
    </style>
  </defs>
  <g id="Group_6000" data-name="Group 6000" transform="translate(0.199 0.301)">
    <path id="Path_7947" data-name="Path 7947" class="cls-1" d="M30.5,28.3a2.452,2.452,0,0,0,1.6-.6l.1-.2a2.529,2.529,0,0,0,.6-1.5,1.99,1.99,0,0,0-.7-1.6,3.039,3.039,0,0,0-.7-.5h.3a1.99,1.99,0,0,0,1.6-.7h0a2.452,2.452,0,0,0,.6-1.6,1.99,1.99,0,0,0-.7-1.6,1.563,1.563,0,0,0-1.2-.6v-.1h.4a2.035,2.035,0,0,0,1.5-.6,2.2,2.2,0,0,0,.6-1.5V15.6a2.281,2.281,0,0,0-.6-1.2,2.546,2.546,0,0,0-1.9-.6H21a4.686,4.686,0,0,0,1.4-2.9c0-.3.1-1.5.1-3.7l-.7-4.8a2.384,2.384,0,0,0-.6-1.1,2.1,2.1,0,0,0-3.6,1.5h0l-.9,5.1c-1.6,4.7-4,7.9-7.2,9.4"/>
    <line id="Line_1061" data-name="Line 1061" class="cls-1" y2="14.2" transform="translate(9.6 17.3)"/>
    <path id="Path_7948" data-name="Path 7948" class="cls-1" d="M9.6,17.3a1.061,1.061,0,0,0-1.2-1.2H2A1.061,1.061,0,0,0,.8,17.3V31.9A1.061,1.061,0,0,0,2,33.1H8.4a1.061,1.061,0,0,0,1.2-1.2v-.5"/>
    <path id="Path_7949" data-name="Path 7949" class="cls-1" d="M9.6,31.5A8.607,8.607,0,0,0,14,33.1H29.4a1.99,1.99,0,0,0,1.6-.7l.2-.2a2.456,2.456,0,0,0,.5-1.5,1.99,1.99,0,0,0-.7-1.6c-.5-.5-.8-.8-.9-.8"/>
  </g>
</svg>
