<svg xmlns="http://www.w3.org/2000/svg" viewBox="0 0 13.422 11.238">
  <defs>
    <style>
      .cls-1 {
        fill: #fff;
        opacity: 0.6;
      }
    </style>
  </defs>
  <path id="Twitter_1_" class="cls-1" d="M13.156.215A4.978,4.978,0,0,1,11.4.895,2.759,2.759,0,0,0,9.4,0,2.8,2.8,0,0,0,6.642,2.828a3.944,3.944,0,0,0,.072.644A7.75,7.75,0,0,1,1.059.537,2.747,2.747,0,0,0,.7,1.969,2.981,2.981,0,0,0,1.918,4.331,2.544,2.544,0,0,1,.665,3.973v.036A2.774,2.774,0,0,0,2.884,6.765a2.308,2.308,0,0,1-.716.107,2.2,2.2,0,0,1-.5-.036A2.807,2.807,0,0,0,4.244,8.8a5.4,5.4,0,0,1-3.4,1.217A3.89,3.89,0,0,1,.2,9.986a7.708,7.708,0,0,0,4.223,1.253,7.9,7.9,0,0,0,7.838-8.017V2.863A5.324,5.324,0,0,0,13.621,1.4a4.912,4.912,0,0,1-1.575.429A3.722,3.722,0,0,0,13.156.215Z" transform="translate(-0.199)"/>
</svg>
